<?xml version="1.0" standalone="no"?>
<!DOCTYPE svg PUBLIC "-//W3C//DTD SVG 20010904//EN"
 "http://www.w3.org/TR/2001/REC-SVG-20010904/DTD/svg10.dtd">
<svg version="1.0" xmlns="http://www.w3.org/2000/svg"
 width="467.000000pt" height="451.000000pt" viewBox="0 0 467.000000 451.000000"
 preserveAspectRatio="xMidYMid meet">

<g transform="translate(0.000000,451.000000) scale(0.100000,-0.100000)"
fill="#000000" stroke="none">
<path d="M160 4210 l0 -210 210 0 210 0 0 210 0 210 -210 0 -210 0 0 -210z
m360 0 l0 -150 -150 0 -150 0 0 150 0 150 150 0 150 0 0 -150z"/>
<path d="M280 4210 l0 -90 90 0 90 0 0 90 0 90 -90 0 -90 0 0 -90z"/>
<path d="M640 4390 c0 -27 3 -30 30 -30 27 0 30 -3 30 -30 0 -27 3 -30 30 -30
27 0 30 3 30 30 0 27 3 30 30 30 l30 0 0 -60 0 -60 30 0 30 0 0 -60 0 -60 -90
0 -90 0 0 -30 c0 -27 -3 -30 -30 -30 -27 0 -30 -3 -30 -30 0 -27 3 -30 30 -30
27 0 30 3 30 30 0 27 3 30 30 30 l30 0 0 -60 0 -60 -60 0 -60 0 0 -90 0 -90
30 0 30 0 0 -60 0 -60 -30 0 c-27 0 -30 -3 -30 -30 l0 -30 -60 0 -60 0 0 30
c0 27 3 30 30 30 27 0 30 3 30 30 0 27 -3 30 -30 30 -27 0 -30 -3 -30 -30 0
-27 -3 -30 -30 -30 -27 0 -30 -3 -30 -30 0 -27 3 -30 30 -30 27 0 30 -3 30
-30 0 -27 -3 -30 -30 -30 -27 0 -30 -3 -30 -30 0 -27 3 -30 29 -30 25 0 30 -4
33 -27 2 -23 8 -28 31 -27 23 1 27 -3 27 -27 0 -27 2 -28 58 -31 54 -3 57 -4
60 -30 3 -28 3 -28 -57 -28 -58 0 -60 1 -63 28 -2 21 -9 28 -30 30 -25 3 -28
0 -28 -27 0 -28 -3 -31 -29 -31 -25 0 -30 4 -33 28 -2 22 -8 27 -30 27 -27 -1
-28 1 -28 57 0 58 0 58 -30 58 -30 0 -30 -1 -30 -54 0 -52 1 -55 28 -58 21 -2
28 -9 30 -30 3 -25 0 -28 -27 -28 -28 0 -31 -3 -31 -30 0 -27 -3 -30 -30 -30
-27 0 -30 3 -30 30 0 27 -3 30 -30 30 -27 0 -30 -3 -30 -30 0 -27 -3 -30 -30
-30 -27 0 -30 -3 -30 -30 0 -27 3 -30 30 -30 27 0 30 -3 30 -30 0 -27 3 -30
30 -30 27 0 30 -3 30 -30 0 -27 -3 -30 -30 -30 -27 0 -30 -3 -30 -30 0 -27 -3
-30 -30 -30 -27 0 -30 -3 -30 -30 0 -27 3 -30 30 -30 l30 0 0 -60 0 -60 -30 0
c-27 0 -30 -3 -30 -30 0 -27 3 -30 30 -30 l30 0 0 -60 0 -60 -30 0 -30 0 0
-60 0 -60 30 0 c27 0 30 -3 30 -30 0 -27 -3 -30 -30 -30 l-30 0 0 -60 0 -60
30 0 c27 0 30 -3 30 -30 0 -27 -3 -30 -30 -30 l-30 0 0 -90 0 -90 30 0 c30 0
30 -1 30 -55 0 -54 0 -55 -30 -55 l-30 0 0 -150 0 -150 30 0 c27 0 30 3 30 30
0 27 3 30 30 30 27 0 30 3 30 30 0 27 3 30 30 30 l30 0 0 -90 0 -90 -90 0 -90
0 0 -30 0 -30 60 0 60 0 0 -30 0 -30 -60 0 -60 0 0 -60 0 -60 30 0 c27 0 30 3
30 30 0 27 3 30 30 30 l30 0 0 -60 0 -60 30 0 c27 0 30 -3 30 -30 0 -27 3 -30
30 -30 l30 0 0 60 0 60 90 0 90 0 0 30 c0 27 3 30 30 30 27 0 30 -3 30 -30 0
-27 3 -30 30 -30 27 0 30 -3 30 -30 0 -27 -3 -30 -30 -30 -27 0 -30 -3 -30
-30 0 -27 -3 -30 -30 -30 -27 0 -30 3 -30 30 l0 30 -60 0 -60 0 0 -30 0 -30
60 0 60 0 0 -30 c0 -27 -3 -30 -30 -30 -27 0 -30 -3 -30 -30 l0 -30 -60 0 -60
0 0 -60 0 -60 30 0 c27 0 30 -3 30 -30 0 -27 -3 -30 -30 -30 -27 0 -30 -3 -30
-30 l0 -30 -60 0 -60 0 0 30 c0 27 -3 30 -30 30 -27 0 -30 3 -30 30 l0 30 60
0 60 0 0 60 0 60 -30 0 c-27 0 -30 -3 -30 -30 0 -27 -3 -30 -30 -30 l-30 0 0
60 0 60 30 0 c27 0 30 3 30 30 l0 30 -60 0 -60 0 0 -90 0 -90 30 0 c27 0 30
-3 30 -30 0 -27 -3 -30 -30 -30 l-30 0 0 -60 0 -60 60 0 60 0 0 -30 0 -30 -60
0 -60 0 0 -30 c0 -27 3 -30 30 -30 27 0 30 -3 30 -30 0 -27 -3 -30 -30 -30
-27 0 -30 -3 -30 -30 l0 -30 60 0 60 0 0 90 0 90 60 0 60 0 0 -30 c0 -27 -3
-30 -30 -30 l-31 0 3 -87 c3 -88 3 -88 30 -91 22 -3 28 -9 28 -28 0 -20 5 -24
30 -24 30 0 30 1 30 55 l0 55 60 0 60 0 0 30 c0 27 3 30 30 30 27 0 30 -3 30
-30 0 -27 3 -30 30 -30 30 0 30 -1 30 -55 0 -54 0 -55 -30 -55 -27 0 -30 -3
-30 -30 0 -27 3 -30 30 -30 27 0 30 3 30 30 l0 30 60 0 60 0 0 -90 0 -90 30 0
c27 0 30 3 30 30 0 27 3 30 30 30 27 0 30 3 30 30 0 27 3 30 30 30 l30 0 0
-90 0 -90 30 0 31 0 -3 -57 c-3 -55 -4 -58 -30 -61 -25 -3 -28 0 -28 27 0 28
-3 31 -30 31 -27 0 -30 -3 -30 -30 l0 -30 -90 0 -90 0 0 30 c0 27 3 30 30 30
27 0 30 3 30 30 l0 30 -60 0 -60 0 0 60 0 60 -30 0 -30 0 0 -60 0 -60 30 0
c27 0 30 -3 30 -30 0 -27 -3 -30 -30 -30 -27 0 -30 -3 -30 -30 l0 -30 60 0 60
0 0 -30 c0 -27 -3 -30 -30 -30 -27 0 -30 -3 -30 -30 l0 -31 58 3 c54 3 57 4
60 31 3 23 8 27 33 27 26 0 29 -3 29 -31 0 -27 3 -30 28 -27 25 3 27 7 32 61
3 31 8 57 13 57 4 0 16 0 27 0 18 0 20 -7 20 -61 0 -60 0 -60 28 -57 21 2 28
9 30 30 3 24 8 28 33 28 26 0 29 -3 29 -30 0 -29 1 -30 48 -30 63 0 72 8 68
55 -4 53 1 65 30 65 21 0 23 -5 26 -57 3 -55 4 -58 31 -61 24 -3 27 0 27 27 0
28 3 31 30 31 25 0 30 -4 30 -24 0 -23 16 -36 46 -36 9 0 14 11 14 30 l0 30
90 0 90 0 0 30 c0 27 3 30 30 30 27 0 30 -3 30 -30 0 -27 3 -30 30 -30 27 0
30 3 30 30 0 27 3 30 30 30 l30 0 0 60 0 60 90 0 90 0 0 30 c0 27 3 30 30 30
27 0 30 3 30 30 0 27 3 30 30 30 l30 0 0 60 0 60 90 0 c89 0 90 0 90 25 0 20
-5 25 -27 26 -91 4 -88 3 -91 32 -3 23 -8 27 -33 27 -26 0 -29 3 -29 30 l0 30
90 0 90 0 0 -30 c0 -27 3 -30 30 -30 27 0 30 3 30 30 0 27 3 30 30 30 l31 0
-3 -57 c-3 -55 -4 -58 -30 -61 -22 -3 -28 -9 -28 -28 0 -20 5 -24 30 -24 27 0
30 -3 30 -30 0 -27 -3 -30 -30 -30 -27 0 -30 -3 -30 -30 0 -27 -3 -30 -30 -30
-27 0 -30 3 -30 30 0 27 -3 30 -30 30 l-30 0 0 -60 0 -60 -30 0 c-27 0 -30 -3
-30 -30 l0 -30 -60 0 -60 0 0 -30 c0 -27 3 -30 30 -30 l30 0 0 -60 0 -60 -30
0 c-27 0 -30 3 -30 30 l0 30 -90 0 -90 0 0 -30 0 -30 90 0 90 0 0 -28 c0 -24
4 -28 30 -30 27 -2 30 0 30 28 0 27 3 30 30 30 27 0 30 -3 30 -30 0 -19 5 -30
14 -30 30 0 46 13 46 36 0 20 -5 24 -30 24 l-30 0 0 60 0 60 30 0 c27 0 30 -3
30 -30 0 -27 3 -30 30 -30 30 0 30 0 30 -59 l0 -59 118 1 117 2 3 27 c3 21 9
27 30 30 21 2 28 9 30 31 3 27 3 27 -57 27 l-61 0 0 30 c0 27 -3 30 -30 30
-27 0 -30 3 -30 29 0 25 4 30 28 33 26 3 27 6 30 61 3 57 4 58 30 55 27 -3 27
-4 30 -90 l3 -88 54 0 c64 0 68 6 63 110 -3 63 -4 65 -30 68 -24 3 -28 8 -28
33 0 29 0 29 -60 29 l-60 0 0 30 0 30 61 0 c60 0 60 0 57 -27 -3 -24 1 -28 24
-31 19 -2 28 2 33 17 9 28 -1 41 -31 41 -19 0 -24 5 -24 24 0 27 15 33 72 28
l37 -4 3 -142 3 -141 118 -3 117 -3 0 -29 c0 -30 0 -30 -60 -30 l-60 0 0 -60
0 -60 -30 0 -30 0 0 60 0 60 -55 0 -55 0 0 -60 0 -60 54 0 c52 0 55 -1 58 -28
3 -26 6 -27 61 -30 l57 -3 0 61 c0 60 0 60 29 60 25 0 30 -4 33 -27 2 -22 9
-29 31 -31 l27 -3 0 90 0 91 30 0 30 0 0 -90 0 -90 30 0 c27 0 30 -3 30 -31 0
-27 3 -30 27 -27 28 3 28 3 31 91 l3 87 59 0 c60 0 60 0 60 30 0 27 3 30 30
30 27 0 30 3 30 30 0 27 -3 30 -30 30 -27 0 -30 3 -30 30 l0 30 60 0 60 0 0
30 c0 27 3 30 30 30 27 0 30 -3 30 -30 0 -27 3 -30 30 -30 27 0 30 -3 30 -30
l0 -30 60 0 60 0 0 30 c0 27 3 30 30 30 l30 0 0 60 0 60 -30 0 c-27 0 -30 -3
-30 -30 0 -27 -3 -30 -30 -30 -30 0 -30 0 -30 59 l0 59 30 -4 30 -5 0 60 0 61
30 0 c27 0 30 3 30 30 0 27 -3 30 -30 30 -27 0 -30 3 -30 30 0 30 0 30 60 30
l59 0 3 -118 3 -117 85 0 85 0 3 28 c3 23 8 27 33 27 27 0 30 -3 27 -28 -2
-21 -8 -27 -28 -27 -23 0 -25 -4 -28 -58 -3 -56 -4 -57 -32 -57 -27 0 -30 3
-30 30 l0 30 -60 0 -60 0 0 -120 0 -120 -150 0 -150 0 0 -30 c0 -27 -3 -30
-30 -30 -27 0 -30 -3 -30 -30 0 -27 3 -30 30 -30 27 0 30 -3 30 -30 l0 -30 60
0 c59 0 60 0 60 -29 0 -25 3 -29 30 -27 26 1 30 5 30 28 0 24 -4 28 -30 28
l-30 0 0 60 0 60 90 0 90 0 0 -60 0 -60 -30 0 c-27 0 -30 -3 -30 -30 l0 -30
60 0 60 0 0 60 0 60 30 0 c27 0 30 -3 30 -30 0 -27 3 -30 30 -30 27 0 30 -3
30 -30 l0 -30 115 0 115 0 0 60 c0 60 0 60 30 60 28 0 29 -1 32 -57 3 -55 4
-58 30 -61 28 -3 28 -3 28 57 0 61 0 61 30 61 28 0 29 -1 32 -57 l3 -58 58 -3
57 -3 0 30 c0 25 -4 30 -27 33 -22 2 -29 9 -31 31 -3 24 0 27 27 27 28 0 31 3
31 30 0 27 -3 30 -30 30 -27 0 -30 3 -30 30 0 27 3 30 30 30 l30 0 0 235 0
235 -61 0 c-60 0 -60 0 -57 -27 2 -22 9 -29 31 -31 23 -3 27 -8 27 -33 0 -26
-3 -29 -30 -29 -25 0 -30 -4 -30 -24 0 -26 20 -39 45 -30 13 5 15 -8 15 -85
l0 -91 -30 0 c-27 0 -30 -3 -30 -30 0 -27 3 -30 30 -30 27 0 30 -3 30 -30 0
-27 -3 -30 -30 -30 -27 0 -30 -3 -30 -30 0 -27 -3 -30 -30 -30 l-30 0 0 89 0
90 -27 3 c-27 3 -28 5 -28 58 0 53 1 55 28 58 26 3 27 6 27 58 0 53 0 54 -30
54 -26 0 -30 -4 -30 -28 0 -26 -3 -28 -30 -24 -24 3 -30 9 -30 28 0 19 -5 24
-24 24 -16 0 -26 7 -29 22 -8 29 -1 38 29 38 23 0 24 3 24 59 0 58 -1 60 -27
63 -22 2 -28 8 -28 28 0 20 6 26 28 28 23 3 27 8 27 33 0 24 -4 29 -24 29 -31
0 -36 15 -36 106 0 72 -1 74 -25 74 -21 0 -25 5 -25 31 0 27 3 30 28 27 21 -2
27 -8 27 -28 0 -23 4 -25 58 -28 56 -3 57 -4 57 -32 0 -27 -3 -30 -31 -30 -27
0 -30 -3 -27 -27 2 -22 9 -29 30 -31 21 -3 27 -9 30 -30 2 -21 9 -28 30 -30
21 -3 27 -9 30 -30 2 -21 9 -28 31 -30 23 -3 27 -8 27 -33 0 -26 3 -29 30 -29
27 0 30 3 30 30 0 27 3 30 30 30 l30 0 0 60 0 60 -30 0 c-27 0 -30 3 -30 30 0
27 -3 30 -31 30 -27 0 -30 -3 -27 -28 2 -21 9 -28 31 -30 26 -3 27 -5 27 -63
0 -59 0 -59 -30 -59 -27 0 -30 3 -30 30 0 27 -3 30 -30 30 l-30 0 0 90 0 90
-30 0 c-27 0 -30 3 -30 30 0 27 3 30 30 30 l30 0 0 90 0 90 60 0 60 0 0 -60 0
-60 -30 0 -30 0 0 -60 0 -60 60 0 60 0 0 180 0 180 -30 0 c-27 0 -30 3 -30 30
0 27 3 30 30 30 l30 0 0 90 0 90 -60 0 -60 0 0 -30 c0 -27 -3 -30 -30 -30 -27
0 -30 -3 -30 -31 0 -27 -3 -30 -27 -27 -27 3 -28 5 -28 58 0 53 1 55 28 58 26
3 27 5 27 62 l0 59 -57 3 c-55 3 -58 4 -61 31 -3 21 -9 27 -28 27 -27 0 -26 3
-28 -65 -1 -46 -3 -50 -28 -53 -26 -3 -27 -2 -30 55 -3 55 -4 58 -30 61 -28 3
-28 3 -28 -57 0 -61 0 -61 -30 -61 -28 0 -29 1 -32 58 l-3 57 -57 3 c-57 3
-58 4 -58 32 0 27 3 30 30 30 l30 0 0 85 0 85 30 0 c27 0 30 -3 30 -30 l0 -31
58 3 c53 3 57 5 57 28 0 23 -4 25 -57 28 -57 3 -58 4 -58 32 0 28 1 29 58 32
l57 3 3 58 3 57 -30 0 c-25 0 -30 -4 -33 -27 -2 -22 -9 -29 -30 -31 -28 -3
-28 -3 -28 57 l0 61 -30 0 c-27 0 -30 3 -30 30 0 27 -3 30 -30 30 -27 0 -30 3
-30 30 0 28 1 29 58 32 l57 3 3 58 3 57 -31 0 c-27 0 -30 3 -30 30 l0 30 60 0
60 0 0 -31 c0 -27 3 -30 28 -27 21 2 28 9 30 31 3 22 8 27 31 27 25 0 27 -3
23 -30 -3 -24 -9 -30 -28 -30 -20 0 -24 -5 -24 -30 0 -27 -3 -30 -30 -30 l-30
0 0 -91 0 -90 28 3 c27 3 27 3 30 91 l3 87 27 0 27 0 -2 -107 c0 -58 1 -112 4
-120 3 -7 16 -13 29 -13 23 0 24 -3 24 -60 l0 -60 -55 0 c-54 0 -55 0 -55 -29
0 -25 5 -30 27 -33 25 -3 27 -6 27 -58 l1 -55 -85 -1 c-84 -2 -85 -2 -88 -28
l-3 -27 88 3 c86 3 88 3 88 28 0 20 6 25 25 25 19 0 26 -6 30 -25 4 -18 13
-26 33 -28 23 -3 27 -8 27 -33 0 -26 3 -29 30 -29 l30 0 0 85 0 85 90 0 90 0
0 90 0 90 -60 0 -60 0 0 -30 c0 -27 -3 -30 -30 -30 -27 0 -30 3 -30 29 0 25
-4 30 -27 33 -22 2 -29 9 -31 31 -3 24 0 27 27 27 28 0 31 3 31 30 0 27 3 30
30 30 27 0 30 -3 30 -30 l0 -30 60 0 60 0 0 90 0 90 -30 0 c-27 0 -30 3 -30
30 0 27 3 30 30 30 l30 0 0 150 0 149 -117 3 -118 3 -3 28 c-3 24 0 27 27 27
l31 0 0 60 0 60 -30 0 c-27 0 -30 -3 -30 -30 0 -27 -3 -30 -30 -30 l-31 0 3
88 c3 87 3 87 31 90 24 3 27 0 27 -27 0 -28 3 -31 30 -31 27 0 30 3 30 30 0
27 3 30 30 30 27 0 30 -3 30 -30 0 -27 3 -30 30 -30 27 0 30 -3 30 -30 0 -27
3 -30 30 -30 l30 0 0 90 0 91 -87 -3 c-88 -3 -88 -3 -91 -30 -3 -24 -8 -28
-33 -28 -26 0 -29 3 -29 30 0 27 -3 30 -30 30 l-30 0 0 175 0 175 -54 0 c-56
0 -67 8 -58 43 4 14 17 17 88 17 l83 0 3 -117 3 -118 28 -3 c21 -3 27 -9 27
-28 0 -20 5 -24 30 -24 27 0 30 3 30 30 0 26 3 29 28 27 23 -2 27 2 30 26 3
23 8 27 33 27 l29 0 0 240 0 240 -30 0 -30 0 0 -240 0 -240 -30 0 c-25 0 -30
-4 -30 -24 0 -30 -13 -40 -40 -31 -17 5 -20 15 -20 61 0 53 0 54 30 54 27 0
30 3 30 29 0 25 -4 30 -27 33 -27 3 -28 6 -31 61 l-3 57 31 0 30 0 0 60 0 60
-30 0 -30 0 0 60 0 60 -30 0 -31 0 3 -57 c3 -55 4 -58 31 -61 22 -3 27 -8 27
-32 0 -24 -5 -29 -27 -32 -22 -2 -29 -9 -31 -31 -3 -24 -7 -28 -30 -25 -27 3
-27 4 -30 91 l-3 88 -27 -3 c-22 -2 -27 -8 -26 -30 1 -27 0 -28 -57 -28 -59 0
-59 0 -59 29 0 25 4 30 28 33 21 2 28 9 30 31 3 24 0 27 -27 27 l-31 0 0 60 0
60 -30 0 c-27 0 -30 -3 -30 -30 0 -27 -3 -30 -30 -30 l-30 0 0 60 0 60 60 0
60 0 0 30 c0 27 -3 30 -30 30 -27 0 -30 3 -30 30 l0 30 -90 0 -90 0 0 30 0 30
60 0 60 0 0 60 0 60 -90 0 -90 0 0 -60 0 -60 -30 0 -30 0 0 -60 0 -60 -30 0
-30 0 0 -90 0 -90 -30 0 c-27 0 -30 3 -30 30 0 27 -3 30 -30 30 -27 0 -30 3
-30 30 0 27 3 30 30 30 27 0 30 3 30 30 0 27 -3 30 -30 30 -27 0 -30 3 -30 30
0 27 -3 30 -30 30 -27 0 -30 3 -30 30 l0 30 60 0 60 0 0 60 0 60 -60 0 -60 0
0 -60 0 -60 -30 0 c-27 0 -30 -3 -30 -30 0 -27 -3 -30 -30 -30 -27 0 -30 -3
-30 -30 0 -27 -3 -30 -30 -30 -27 0 -30 3 -30 30 l0 30 -60 0 -60 0 0 30 c0
27 3 30 30 30 27 0 30 3 30 30 l0 30 -60 0 -60 0 0 30 c0 27 -3 30 -30 30 -27
0 -30 -3 -30 -30 0 -27 -3 -30 -30 -30 -27 0 -30 3 -30 30 l0 30 -175 0 -175
0 0 -30 c0 -27 -3 -30 -30 -30 -27 0 -30 3 -30 30 0 27 -3 30 -30 30 -27 0
-30 -3 -30 -30 0 -27 -3 -30 -30 -30 -27 0 -30 3 -30 30 l0 30 -90 0 -90 0 0
-30 c0 -27 3 -30 30 -30 27 0 30 -3 30 -30 0 -27 3 -30 30 -30 27 0 30 3 30
30 0 27 3 30 30 30 l30 0 0 -60 0 -60 -30 0 c-27 0 -30 -3 -30 -30 0 -27 3
-30 30 -30 27 0 30 3 30 29 0 25 4 30 28 33 26 3 27 6 30 61 3 56 4 57 32 57
27 0 30 -3 30 -31 0 -27 3 -30 28 -27 21 2 28 9 30 31 3 23 8 27 33 27 26 0
29 -3 29 -30 0 -30 1 -30 55 -30 54 0 55 0 55 30 0 27 3 30 30 30 27 0 30 -3
30 -30 l0 -30 90 0 90 0 0 30 c0 27 3 30 30 30 l30 0 0 -60 0 -60 -90 0 -90 0
0 -30 0 -30 -60 0 -60 0 0 -91 0 -90 -27 3 c-22 2 -29 9 -31 31 -3 21 -9 27
-28 27 -20 0 -24 5 -24 30 l0 30 -60 0 -60 0 0 60 0 60 -30 0 -30 0 0 -60 0
-60 -60 0 -60 0 0 -30 c0 -27 -3 -30 -30 -30 l-30 0 0 -60 0 -60 -30 0 -30 0
0 90 0 90 -30 0 c-27 0 -30 3 -30 30 l0 30 60 0 60 0 0 30 c0 27 -3 30 -30 30
-27 0 -30 3 -30 30 0 27 -3 30 -30 30 -27 0 -30 3 -30 30 0 27 -3 30 -30 30
-27 0 -30 3 -30 30 0 27 -3 30 -30 30 -27 0 -30 -3 -30 -30 0 -27 3 -30 30
-30 l30 0 0 -60 0 -60 -30 0 c-27 0 -30 3 -30 30 0 27 -3 30 -30 30 l-30 0 0
60 0 60 -60 0 -60 0 0 -30 c0 -27 3 -30 30 -30 l30 0 0 -60 0 -60 30 0 c27 0
30 -3 30 -30 l0 -30 -60 0 -60 0 0 30 c0 27 -3 30 -30 30 -27 0 -30 -3 -30
-30 l0 -30 -150 0 -150 0 0 30 c0 27 -3 30 -30 30 -27 0 -30 3 -30 30 l0 30
60 0 60 0 0 -30 0 -30 90 0 90 0 0 30 c0 27 3 30 30 30 l30 0 0 60 0 60 -90 0
-90 0 0 -30 0 -30 60 0 60 0 0 -30 0 -30 -90 0 -90 0 0 30 c0 27 -3 30 -30 30
-27 0 -30 3 -30 30 0 27 -3 30 -30 30 -27 0 -30 -3 -30 -30 0 -27 -3 -30 -30
-30 -27 0 -30 3 -30 30 l0 30 -175 0 -175 0 0 -30 c0 -27 -3 -30 -30 -30 -27
0 -30 3 -30 30 0 27 -3 30 -30 30 -27 0 -30 -3 -30 -30 0 -27 3 -30 30 -30
l30 0 0 -90 0 -90 60 0 60 0 0 -30 c0 -27 -3 -30 -30 -30 -27 0 -30 -3 -30
-30 0 -27 -3 -30 -30 -30 -27 0 -30 3 -30 30 0 27 -3 30 -30 30 l-30 0 0 90 0
90 -30 0 -30 0 0 60 0 60 -120 0 -120 0 0 -30z m597 -57 c-2 -27 0 -28 56 -31
l57 -3 0 31 c0 27 3 30 30 30 l30 0 0 -60 0 -61 -87 3 -88 3 0 28 1 27 -88 0
-88 0 0 30 0 30 89 0 90 0 -2 -27z m1903 -213 l0 -120 30 0 c27 0 30 3 30 30
0 27 3 30 30 30 27 0 30 -3 30 -30 0 -27 3 -30 30 -30 27 0 30 3 30 30 0 27 3
30 30 30 27 0 30 3 30 30 0 27 -3 30 -30 30 -27 0 -30 3 -30 30 0 27 3 30 30
30 27 0 30 3 30 30 0 27 3 30 30 30 27 0 30 -3 30 -30 0 -27 3 -30 30 -30 27
0 30 -3 30 -30 0 -27 -3 -30 -30 -30 -27 0 -30 -3 -30 -30 0 -27 3 -30 30 -30
l30 0 0 -120 0 -120 -60 0 -60 0 0 30 c0 27 -3 30 -30 30 l-30 0 0 -90 0 -90
30 0 c27 0 30 -3 30 -30 0 -27 -3 -30 -30 -30 -27 0 -30 -3 -30 -30 0 -27 -3
-30 -30 -30 -27 0 -30 -3 -30 -30 l0 -30 60 0 60 0 0 -30 c0 -27 3 -30 30 -30
27 0 30 3 30 30 0 27 3 30 30 30 27 0 30 3 30 30 l0 30 90 0 90 0 0 -30 c0
-27 3 -30 30 -30 27 0 30 -3 30 -30 0 -27 3 -30 30 -30 26 0 30 -3 30 -29 l0
-29 -117 0 c-267 -2 -243 1 -243 -27 0 -24 3 -25 60 -25 l60 0 0 -60 0 -60
-30 0 c-27 0 -30 -3 -30 -30 0 -27 -3 -30 -30 -30 l-30 0 0 60 0 60 -89 0 -90
0 -3 28 c-3 26 -6 27 -60 30 -53 3 -58 5 -58 26 0 14 -7 26 -17 28 -35 9 -43
-2 -43 -58 0 -53 0 -54 30 -54 27 0 30 -3 30 -30 l0 -30 120 0 120 0 0 -30 c0
-27 -3 -30 -30 -30 -27 0 -30 -3 -30 -30 0 -27 -3 -30 -30 -30 l-30 0 0 -60 0
-60 30 0 30 0 0 -60 0 -60 -30 0 -30 0 0 -90 0 -90 30 0 30 0 0 -90 0 -90 30
0 30 0 0 90 0 90 30 0 c27 0 30 3 30 30 0 27 -3 30 -30 30 l-30 0 0 60 0 60
90 0 90 0 0 -60 0 -60 30 0 c27 0 30 -3 30 -30 0 -27 3 -30 30 -30 l30 0 0 60
0 60 30 0 c27 0 30 3 30 30 l0 30 -60 0 -60 0 0 30 0 30 -120 0 -120 0 0 30
c0 27 3 30 30 30 27 0 30 3 30 30 0 27 -3 30 -30 30 -27 0 -30 3 -30 30 l0 30
60 0 60 0 0 -60 0 -60 60 0 60 0 0 30 c0 27 -3 30 -30 30 -27 0 -30 3 -30 30
0 27 3 30 30 30 27 0 30 -3 30 -30 0 -27 3 -30 30 -30 l30 0 0 60 0 60 -30 0
c-27 0 -30 3 -30 30 0 27 3 30 30 30 l30 0 0 60 0 60 60 0 60 0 0 -30 c0 -27
-3 -30 -30 -30 -27 0 -30 -3 -30 -30 0 -27 3 -30 30 -30 l30 0 0 -90 0 -90 30
0 c27 0 30 -3 30 -30 0 -27 3 -30 30 -30 27 0 30 -3 30 -30 0 -27 -3 -30 -30
-30 -27 0 -30 3 -30 30 0 27 -3 30 -30 30 -27 0 -30 -3 -30 -30 0 -27 -3 -30
-30 -30 -27 0 -30 -3 -30 -30 0 -27 3 -30 30 -30 27 0 30 -3 30 -30 0 -27 3
-30 30 -30 27 0 30 3 30 30 l0 30 60 0 60 0 0 -30 c0 -27 -3 -30 -30 -30 -27
0 -30 -3 -30 -30 0 -27 -3 -30 -30 -30 -27 0 -30 -3 -30 -30 0 -27 -3 -30 -30
-30 -27 0 -30 -3 -30 -30 l0 -30 60 0 60 0 0 -30 0 -30 -60 0 -60 0 0 30 c0
27 -3 30 -30 30 -27 0 -30 3 -30 30 0 27 -3 30 -30 30 -27 0 -30 -3 -30 -30 0
-27 -3 -30 -30 -30 -27 0 -30 3 -30 30 0 27 -3 30 -30 30 -27 0 -30 3 -30 30
0 27 -3 30 -30 30 l-30 0 0 -60 0 -60 30 0 30 0 0 -120 0 -120 60 0 60 0 0 60
0 60 30 0 c27 0 30 -3 30 -30 0 -27 3 -30 30 -30 l30 0 0 -90 0 -90 90 0 90 0
0 -30 0 -30 -90 0 -90 0 0 30 c0 27 -3 30 -30 30 -27 0 -30 -3 -30 -30 0 -27
-3 -30 -30 -30 -27 0 -30 -3 -30 -30 l0 -30 60 0 60 0 0 -60 c0 -58 0 -59 28
-57 23 2 27 -2 30 -25 3 -25 0 -28 -27 -28 l-31 0 0 -60 0 -60 30 0 30 0 0
-60 0 -60 -30 0 c-27 0 -30 3 -30 30 0 27 -3 30 -30 30 -27 0 -30 -3 -30 -30
0 -27 -3 -30 -30 -30 -27 0 -30 -3 -30 -30 l0 -30 60 0 60 0 0 -30 c0 -27 3
-30 30 -30 27 0 30 -3 30 -30 0 -27 3 -30 30 -30 27 0 30 -3 30 -30 l0 -30 90
0 91 0 -3 -87 -3 -88 -57 -3 -58 -3 0 -59 c0 -60 0 -60 30 -60 27 0 30 -3 30
-30 0 -27 3 -30 31 -30 27 0 30 -3 27 -28 -2 -21 -9 -28 -30 -30 -27 -3 -28
-5 -28 -63 l0 -59 31 0 c27 0 30 -3 27 -27 -2 -22 -9 -29 -30 -31 -24 -3 -28
-8 -28 -33 0 -26 3 -29 31 -29 27 0 30 -3 27 -27 -2 -22 -9 -29 -30 -31 -24
-3 -28 -8 -28 -33 0 -26 3 -29 31 -29 27 0 30 -3 27 -27 -2 -22 -9 -29 -30
-31 -25 -3 -28 0 -28 27 0 28 -3 31 -29 31 -25 0 -30 -4 -33 -28 -3 -26 -6
-27 -60 -30 l-58 -3 0 91 0 90 -30 0 c-27 0 -30 3 -30 30 0 27 3 30 30 30 l30
0 0 60 0 60 -90 0 -90 0 0 90 0 90 -30 0 c-27 0 -30 3 -30 30 0 27 -3 30 -30
30 l-30 0 0 -90 0 -90 30 0 c27 0 30 -3 30 -30 0 -27 -3 -30 -30 -30 -27 0
-30 -3 -30 -30 0 -27 -3 -30 -30 -30 -27 0 -30 -3 -30 -30 0 -27 -3 -30 -30
-30 -27 0 -30 -3 -30 -30 0 -27 -3 -30 -30 -30 -27 0 -30 -3 -30 -30 l0 -30
60 0 60 0 0 -30 c0 -27 3 -30 30 -30 l30 0 0 -61 c0 -60 0 -60 -27 -57 -24 3
-28 -1 -31 -24 -3 -25 0 -28 27 -28 28 0 31 -3 31 -30 0 -27 -3 -30 -30 -30
-27 0 -30 3 -30 30 0 27 -3 30 -30 30 -27 0 -30 -3 -30 -30 0 -27 -3 -30 -30
-30 -27 0 -30 3 -30 30 0 27 3 30 30 30 25 0 30 4 30 25 0 24 -3 25 -60 25
l-60 0 0 60 0 60 -30 0 c-27 0 -30 -3 -30 -30 0 -27 -3 -30 -30 -30 -27 0 -30
-3 -30 -31 0 -30 2 -31 30 -25 28 5 30 3 30 -24 0 -27 3 -30 30 -30 27 0 30
-3 30 -30 0 -27 -3 -30 -30 -30 -27 0 -30 -3 -30 -30 0 -27 -3 -30 -30 -30
-27 0 -30 -3 -30 -30 0 -27 3 -30 30 -30 27 0 30 -3 30 -30 0 -27 -3 -30 -30
-30 -27 0 -30 -3 -30 -30 0 -27 -3 -30 -30 -30 l-30 0 0 90 0 90 -30 0 c-27 0
-30 3 -30 30 0 27 3 30 30 30 27 0 30 3 30 30 0 27 -3 30 -30 30 -25 0 -30 4
-30 25 0 24 -2 25 -75 26 -41 1 -81 2 -87 3 -9 1 -14 22 -16 58 l-3 58 31 0
c27 0 30 3 30 30 l0 30 60 0 60 0 0 30 0 30 -60 0 -60 0 0 30 c0 27 -3 30 -30
30 -27 0 -30 -3 -30 -30 l0 -31 -57 3 c-55 3 -58 5 -61 30 -3 21 -9 27 -30 30
-21 2 -28 9 -30 31 -3 24 0 27 27 27 28 0 31 -3 31 -30 l0 -30 60 0 60 0 0 60
0 59 -57 3 c-55 3 -58 4 -61 31 -3 26 -6 27 -60 27 l-57 0 0 -57 c0 -55 -1
-58 -27 -61 -21 -3 -27 -9 -30 -30 -2 -21 -9 -28 -30 -30 -24 -3 -28 -8 -28
-33 0 -26 3 -29 31 -29 27 0 30 -3 27 -27 -2 -22 -9 -29 -30 -31 -24 -3 -28
-8 -28 -33 0 -29 1 -29 55 -29 53 0 54 0 60 32 3 18 3 45 1 61 -3 24 0 27 25
27 23 0 28 -5 31 -27 3 -27 6 -28 61 -31 56 -3 57 -4 57 -32 0 -27 -3 -30 -30
-30 -27 0 -30 -3 -30 -30 l0 -30 -145 0 -145 0 0 60 0 60 30 0 c27 0 30 3 30
30 l0 30 -60 0 -60 0 0 -30 c0 -27 -3 -30 -30 -30 l-30 0 0 60 0 60 -90 0 -90
0 0 -60 0 -60 -30 0 c-27 0 -30 -3 -30 -30 l0 -30 -120 0 -120 0 0 30 0 30 60
0 60 0 0 90 0 90 -30 0 c-27 0 -30 -3 -30 -30 0 -27 -3 -30 -30 -30 l-30 0 0
60 0 60 -60 0 -60 0 0 -60 0 -60 30 0 30 0 0 -120 0 -120 121 0 120 0 -3 -28
c-2 -21 -9 -28 -30 -30 -22 -3 -28 -9 -28 -28 0 -20 5 -24 30 -24 26 0 30 4
30 28 0 24 4 28 30 27 26 0 30 -4 30 -27 0 -24 -4 -28 -30 -28 -27 0 -30 -3
-30 -30 0 -27 -3 -30 -30 -30 -27 0 -30 3 -30 30 l0 30 -60 0 c-57 0 -60 1
-60 25 0 23 -3 25 -52 26 -29 1 -56 1 -60 0 -5 0 -8 40 -8 89 l0 90 -30 0 -29
0 -3 -87 c-3 -86 -3 -88 -28 -88 -23 0 -25 4 -28 57 l-3 57 -87 3 c-87 3 -87
3 -90 31 -3 23 -8 27 -33 27 -26 0 -29 -3 -29 -30 l0 -31 -57 3 c-55 3 -58 4
-61 31 -3 24 -7 28 -30 25 -21 -2 -28 -9 -30 -30 -3 -22 -9 -28 -28 -28 -20 0
-24 -5 -24 -30 l0 -30 206 0 205 0 -3 -27 c-2 -22 -9 -29 -30 -31 -22 -3 -28
-9 -28 -28 0 -20 -5 -24 -30 -24 -25 0 -30 4 -30 24 0 25 -1 25 -115 28 -102
3 -116 1 -121 -14 -10 -32 6 -38 92 -38 l84 0 0 -60 0 -61 -57 3 c-55 3 -58 4
-61 31 -3 26 -6 27 -58 27 -53 0 -54 0 -54 -30 0 -25 4 -30 24 -30 19 0 25 -6
28 -27 3 -28 3 -28 90 -31 86 -3 87 -3 90 -30 3 -25 6 -27 61 -30 l57 -3 0 31
c0 27 -3 30 -30 30 l-30 0 0 60 0 60 60 0 60 0 0 -30 c0 -27 -3 -30 -30 -30
-27 0 -30 -3 -30 -30 0 -27 3 -30 30 -30 l30 0 0 -60 0 -60 30 0 c27 0 30 3
30 30 0 27 3 30 30 30 27 0 30 -3 30 -30 0 -27 3 -30 30 -30 27 0 30 -3 30
-30 0 -27 -3 -30 -30 -30 -27 0 -30 3 -30 30 0 27 -3 30 -30 30 -27 0 -30 -3
-30 -30 0 -27 -3 -30 -30 -30 -27 0 -30 3 -30 30 l0 30 -60 0 -60 0 0 -30 0
-30 -90 0 -90 0 0 30 0 30 -85 0 -85 0 0 60 0 60 -30 0 -30 0 0 60 0 60 -30 0
c-27 0 -30 3 -30 30 0 27 -3 30 -30 30 -27 0 -30 -3 -30 -30 0 -27 -3 -30 -30
-30 -27 0 -30 3 -30 30 0 27 -3 30 -30 30 -26 0 -30 4 -30 28 0 26 3 28 30 24
24 -3 30 -9 30 -28 0 -20 5 -24 30 -24 l30 0 0 85 0 85 -30 0 c-27 0 -30 -3
-30 -30 l0 -30 -60 0 -60 0 0 60 0 60 30 0 c27 0 30 -3 30 -30 0 -27 3 -30 30
-30 l30 0 0 150 0 150 30 0 c27 0 30 -3 30 -30 0 -27 3 -30 30 -30 27 0 30 3
30 29 0 25 4 30 28 33 26 3 27 6 30 60 3 57 4 58 32 58 30 0 30 0 30 60 l0 60
-30 0 c-27 0 -30 -3 -30 -30 0 -27 -3 -30 -30 -30 -27 0 -30 3 -30 30 0 27 3
30 30 30 27 0 30 3 30 29 0 25 4 30 28 33 21 2 28 9 30 31 3 27 3 27 -57 27
l-61 0 0 60 0 60 -30 0 c-27 0 -30 -3 -30 -30 0 -27 -3 -30 -30 -30 l-30 0 0
60 0 60 30 0 c27 0 30 3 30 30 l0 30 -60 0 -60 0 0 -30 c0 -27 -3 -30 -30 -30
-27 0 -30 -3 -30 -30 0 -27 3 -30 30 -30 l30 0 0 -180 0 -180 -30 0 c-27 0
-30 -3 -30 -30 0 -27 3 -30 30 -30 27 0 30 -3 30 -30 0 -27 -3 -30 -30 -30
l-30 0 0 -90 0 -90 -30 0 -30 0 0 90 0 90 -60 0 -60 0 0 -30 c0 -27 -3 -30
-30 -30 -27 0 -30 -3 -30 -30 l0 -30 60 0 60 0 0 -60 0 -60 30 0 c27 0 30 -3
30 -30 0 -27 -3 -30 -30 -30 -27 0 -30 3 -30 30 0 27 -3 30 -30 30 -27 0 -30
-3 -30 -30 0 -27 -3 -30 -30 -30 -27 0 -30 3 -30 30 0 27 -3 30 -30 30 l-30 0
0 -60 0 -60 -30 0 -30 0 0 60 0 60 30 0 30 0 0 90 0 90 30 0 c27 0 30 3 30 30
0 27 3 30 30 30 27 0 30 3 30 30 0 27 -3 30 -30 30 -27 0 -30 3 -30 30 l0 30
60 0 60 0 0 60 0 60 30 0 c27 0 30 3 30 30 0 27 3 30 30 30 l30 0 0 60 0 60
-30 0 -30 0 0 60 0 60 30 0 30 0 0 60 0 60 -30 0 -30 0 0 90 0 90 -60 0 -60 0
0 -30 c0 -27 -3 -30 -30 -30 -27 0 -30 3 -30 30 0 27 3 30 30 30 27 0 30 3 30
30 0 27 -3 30 -30 30 -27 0 -30 3 -30 30 l0 30 60 0 60 0 0 58 c0 57 0 57 -30
57 -27 0 -30 -3 -30 -31 0 -23 -5 -31 -17 -31 -37 0 -43 -4 -43 -28 0 -24 -12
-30 -47 -26 -8 1 -13 -10 -13 -29 0 -27 -3 -30 -30 -30 -27 0 -30 3 -30 30 0
27 -3 30 -30 30 -30 0 -30 1 -30 55 0 54 0 55 -30 55 l-30 0 0 60 0 60 -30 0
c-27 0 -30 3 -30 30 0 27 3 30 30 30 27 0 30 3 30 30 0 27 -3 30 -30 30 -27 0
-30 3 -30 30 0 27 3 30 30 30 l30 0 0 90 0 90 30 0 c27 0 30 3 30 30 0 27 -3
30 -30 30 -27 0 -30 3 -30 30 0 27 3 30 30 30 l30 0 0 60 0 60 -30 0 c-27 0
-30 -3 -30 -30 0 -27 -3 -30 -30 -30 -27 0 -30 3 -30 30 0 27 3 30 30 30 27 0
30 3 30 30 0 27 3 30 30 30 27 0 30 3 30 30 0 27 3 30 30 30 27 0 30 -3 30
-30 0 -27 -3 -30 -30 -30 -27 0 -30 -3 -30 -30 0 -27 3 -30 30 -30 l30 0 0
-90 0 -90 60 0 60 0 0 30 0 30 90 0 90 0 0 -30 c0 -27 -3 -30 -30 -30 l-30 0
0 -60 0 -60 -90 0 -90 0 0 30 0 30 -60 0 -60 0 0 -30 c0 -27 3 -30 30 -30 27
0 30 -3 30 -30 l0 -30 90 0 90 0 0 -30 c0 -27 -3 -30 -30 -30 -27 0 -30 -3
-30 -30 0 -27 3 -30 30 -30 27 0 30 -3 30 -30 0 -27 3 -30 30 -30 l29 0 3 -87
c3 -88 3 -88 30 -91 l28 -3 0 90 0 91 30 0 c27 0 30 -3 30 -30 l0 -30 60 0 60
0 0 30 c0 27 -3 30 -30 30 -27 0 -30 3 -30 30 0 27 3 30 30 30 l30 0 0 60 0
60 -30 0 c-27 0 -30 -3 -30 -30 l0 -30 -60 0 -60 0 0 30 c0 27 3 30 30 30 27
0 30 3 30 30 0 27 -3 30 -30 30 -27 0 -30 3 -30 30 0 27 3 30 30 30 27 0 30
-3 30 -30 0 -27 3 -30 30 -30 l30 0 0 60 0 60 -30 0 -30 0 0 90 0 90 -30 0
c-27 0 -30 3 -30 30 0 27 3 30 30 30 27 0 30 -3 30 -30 0 -27 3 -30 30 -30 27
0 30 3 30 30 0 27 3 30 30 30 27 0 30 3 30 30 0 27 3 30 30 30 27 0 30 3 30
30 l0 30 60 0 60 0 0 -30 c0 -27 3 -30 30 -30 27 0 30 3 30 31 0 27 3 30 27
27 22 -2 28 -8 28 -28 0 -20 -6 -26 -27 -28 -27 -3 -28 -5 -28 -63 l0 -59 30
0 31 0 -3 -57 c-3 -55 -4 -58 -30 -61 -28 -3 -28 -3 -28 57 l0 61 -30 0 -30 0
0 -60 0 -60 -30 0 -30 0 0 60 0 60 -30 0 c-27 0 -30 -3 -30 -30 0 -27 -3 -30
-30 -30 -27 0 -30 -3 -30 -30 0 -27 3 -30 30 -30 l30 0 0 -60 0 -61 88 3 c87
3 87 3 90 31 3 23 8 27 33 27 l30 0 -3 -57 -3 -58 -58 -3 c-56 -3 -57 -4 -57
-32 0 -27 3 -30 30 -30 l31 0 -3 -57 c-3 -55 -5 -58 -30 -61 -25 -3 -27 -7
-30 -60 -3 -54 -5 -57 -31 -60 l-27 -3 0 90 0 91 -30 0 c-27 0 -30 -3 -30 -30
0 -27 -3 -30 -30 -30 -27 0 -30 -3 -30 -30 0 -27 3 -30 30 -30 27 0 30 -3 30
-30 0 -27 -3 -30 -30 -30 l-31 0 3 -57 c3 -55 4 -58 31 -61 26 -3 27 -6 27
-58 0 -53 0 -54 -30 -54 -27 0 -30 -3 -30 -30 0 -30 0 -30 60 -30 l59 0 3 56
3 57 55 1 c52 1 55 2 58 29 3 26 6 27 58 27 30 0 55 -4 55 -10 1 -5 3 -14 4
-20 1 -5 3 -14 4 -20 0 -5 12 -10 26 -10 24 0 25 -3 25 -55 0 -54 0 -55 30
-55 27 0 30 -3 30 -31 0 -27 -3 -30 -27 -27 -22 2 -29 9 -31 31 l-3 27 -85 0
-84 0 0 -29 c0 -25 4 -30 28 -33 25 -3 27 -6 30 -60 3 -53 5 -57 30 -60 21 -2
27 -8 27 -28 0 -20 -6 -26 -28 -28 -22 -3 -27 -8 -27 -32 0 -24 5 -29 28 -32
26 -3 28 -8 23 -48 0 -5 -12 -10 -26 -10 -21 0 -25 -5 -25 -30 0 -26 3 -30 29
-30 24 0 28 -4 27 -27 -1 -23 4 -29 26 -31 25 -3 27 -7 30 -60 l3 -57 58 -3
57 -3 0 -59 c0 -60 0 -60 30 -60 27 0 30 -3 30 -30 0 -27 3 -30 30 -30 l30 0
0 60 0 60 -30 0 -30 0 0 60 0 60 30 0 c27 0 30 3 30 30 l0 30 -60 0 -60 0 0
-31 c0 -27 -3 -30 -27 -27 -22 2 -29 9 -31 31 -3 24 0 27 27 27 28 0 31 3 31
30 0 27 3 30 30 30 27 0 30 3 30 30 0 27 3 30 30 30 27 0 30 -3 30 -30 0 -27
3 -30 30 -30 l30 0 0 -60 0 -60 30 0 c27 0 30 3 30 30 0 27 3 30 30 30 27 0
30 3 30 30 0 27 3 30 30 30 27 0 30 -3 30 -30 0 -27 3 -30 30 -30 27 0 30 3
30 30 0 27 3 30 30 30 l30 0 0 60 0 60 30 0 c27 0 30 -3 30 -30 0 -27 3 -30
30 -30 l30 0 0 60 0 60 -30 0 c-27 0 -30 3 -30 30 0 27 -3 30 -30 30 -27 0
-30 3 -30 30 l0 30 60 0 60 0 0 -30 0 -30 60 0 60 0 0 30 c0 27 3 30 30 30 27
0 30 3 30 30 0 27 -3 30 -30 30 l-29 0 -3 87 -3 88 -57 -2 c-58 -1 -58 -1 -58
28 0 26 -4 29 -30 29 -27 0 -30 3 -30 30 l0 30 60 0 60 0 0 30 0 30 -60 0 -60
0 0 30 c0 27 -3 30 -30 30 -27 0 -30 -3 -30 -30 0 -27 -3 -30 -30 -30 -27 0
-30 3 -30 30 0 27 -3 30 -30 30 -27 0 -30 -3 -30 -30 0 -27 -3 -30 -30 -30
-27 0 -30 -3 -30 -30 l0 -30 60 0 60 0 0 -85 0 -85 -30 0 c-27 0 -30 -3 -30
-30 l0 -30 -90 0 -90 0 0 -30 c0 -27 3 -30 30 -30 27 0 30 -3 30 -30 0 -27 -3
-30 -30 -30 l-30 0 0 -60 0 -60 -30 0 c-27 0 -30 -3 -30 -30 l0 -30 -60 0 -60
0 0 -31 c0 -27 -3 -30 -27 -27 -22 2 -29 9 -31 30 -3 21 -9 27 -30 30 -27 3
-27 4 -30 91 -3 85 -3 87 -27 87 -21 0 -25 5 -25 30 0 25 4 30 25 30 21 0 25
-5 25 -30 0 -30 0 -30 59 -30 58 0 60 1 63 28 3 26 6 27 60 30 l57 3 3 57 3
57 88 3 c85 3 87 3 87 27 0 23 -17 32 -52 26 -5 0 -8 26 -8 59 l0 59 -57 3
c-55 3 -58 4 -61 31 -3 23 -8 27 -33 27 -29 0 -29 0 -29 -60 l0 -60 30 0 c27
0 30 -3 30 -30 0 -17 -3 -29 -7 -29 -46 7 -53 0 -53 -56 0 -54 0 -55 -29 -55
-25 0 -30 4 -33 28 -2 21 -9 28 -30 30 -27 3 -28 6 -28 58 0 53 0 54 30 54
l30 0 0 60 0 60 -30 0 c-27 0 -30 -3 -30 -30 0 -27 -3 -30 -30 -30 -27 0 -30
-3 -30 -31 0 -27 -3 -30 -27 -27 -27 3 -28 5 -29 61 0 56 0 57 28 57 l28 0 0
89 0 90 -27 3 -28 3 0 387 0 388 -27 0 c-27 0 -28 -1 -28 -60 l0 -60 -90 0
-90 0 0 30 0 30 -60 0 -60 0 0 -30 c0 -27 -3 -30 -30 -30 -27 0 -30 -3 -30
-30 0 -27 -3 -30 -30 -30 -27 0 -30 -3 -30 -30 0 -27 -3 -30 -30 -30 l-30 0 0
90 0 90 -30 0 c-27 0 -30 3 -30 30 0 27 3 30 30 30 27 0 30 -3 30 -30 0 -27 3
-30 30 -30 27 0 30 3 30 30 0 27 3 30 30 30 l30 0 0 60 0 60 30 0 c30 0 30 1
30 55 0 37 -4 55 -12 56 -7 1 -20 2 -28 3 -8 0 -16 13 -18 29 -3 23 -8 27 -33
27 -28 0 -29 -1 -29 -54 0 -52 -1 -54 -30 -58 l-30 -5 0 59 c0 58 0 58 -30 58
-26 0 -30 -4 -30 -28 0 -25 -4 -29 -28 -27 -22 1 -28 6 -30 28 -3 22 -8 27
-33 27 -26 0 -29 3 -29 30 0 27 3 30 30 30 27 0 30 -3 30 -30 0 -27 3 -30 30
-30 27 0 30 3 30 30 0 27 3 30 30 30 27 0 30 3 30 30 0 27 3 30 30 30 27 0 30
3 30 30 0 27 3 30 30 30 27 0 30 -3 30 -30 l0 -30 60 0 60 0 0 30 c0 27 -3 30
-30 30 -27 0 -30 3 -30 30 0 27 -3 30 -30 30 -27 0 -30 3 -30 30 0 27 -3 30
-30 30 -27 0 -30 3 -30 30 0 27 -3 30 -30 30 -27 0 -30 3 -30 30 0 27 3 30 30
30 27 0 30 3 30 30 0 27 3 30 30 30 27 0 30 -3 30 -30 l0 -30 60 0 60 0 0 30
c0 27 -3 30 -30 30 -27 0 -30 3 -30 30 0 27 -3 30 -30 30 -27 0 -30 3 -30 30
0 27 3 30 30 30 27 0 30 -3 30 -30 0 -27 3 -30 30 -30 27 0 30 3 30 30 0 27 3
30 30 30 27 0 30 -3 30 -30 0 -27 3 -30 30 -30 27 0 30 3 30 30 0 27 3 30 30
30 27 0 30 -3 30 -30 0 -27 -3 -30 -30 -30 -27 0 -30 -3 -30 -30 0 -27 3 -30
30 -30 27 0 30 -3 30 -30 0 -30 0 -30 59 -30 l60 0 -4 -52 c-2 -29 -4 -56 -5
-60 0 -5 -13 -8 -28 -8 -26 0 -28 -3 -24 -30 4 -29 6 -30 58 -30 l54 0 0 -90
0 -90 -55 0 -55 0 0 -48 c0 -56 -12 -72 -56 -72 -48 0 -64 9 -64 36 0 23 -3
24 -60 24 -59 0 -60 -1 -60 -27 0 -27 2 -28 58 -29 54 0 57 -2 60 -27 2 -20
10 -27 30 -29 21 -2 28 -9 30 -30 3 -24 8 -28 33 -28 25 0 29 -4 29 -29 0 -25
4 -30 27 -33 16 -2 28 -9 29 -18 2 -36 5 -40 29 -40 l24 0 3 -117 3 -118 58
-3 57 -3 0 31 c0 27 -3 30 -30 30 -27 0 -30 3 -30 30 0 27 3 30 30 30 27 0 30
3 30 29 0 25 -4 30 -27 33 -22 2 -28 8 -28 28 0 25 2 25 87 28 86 3 87 3 90
30 2 21 9 28 31 30 23 3 27 8 27 33 0 25 4 29 30 29 28 0 29 1 32 58 l3 57 58
-1 c56 -1 57 0 57 28 0 24 -4 28 -30 28 l-30 0 0 60 0 60 -30 0 c-27 0 -30 3
-30 30 0 27 3 30 30 30 l30 0 0 120 0 120 60 0 60 0 0 -30 c0 -27 -3 -30 -30
-30 l-30 0 0 -60 0 -60 30 0 c27 0 30 3 30 30 0 27 3 30 30 30 l30 0 0 180 0
180 30 0 30 0 0 -120 0 -120 30 0 30 0 0 90 0 90 30 0 c27 0 30 3 30 30 0 27
-3 30 -30 30 -27 0 -30 3 -30 30 l0 30 60 0 60 0 0 -30 c0 -27 3 -30 30 -30
l30 0 0 -60 0 -60 -30 0 c-27 0 -30 -3 -30 -30 0 -27 3 -30 30 -30 l30 0 0
-60 0 -60 60 0 60 0 0 30 c0 27 3 30 30 30 27 0 30 -3 30 -30 0 -27 3 -30 30
-30 l30 0 0 60 0 60 -30 0 -30 0 0 60 0 60 30 0 30 0 0 -60 0 -60 60 0 60 0 0
30 c0 27 -3 30 -30 30 l-30 0 0 60 0 60 30 0 30 0 0 -61 c0 -60 0 -60 28 -57
21 2 28 9 30 31 3 21 9 27 28 27 27 0 26 2 29 -65 l2 -50 57 -3 56 -3 0 -119
0 -120 30 0 30 0 0 60 0 60 30 0 c27 0 30 3 30 30 0 27 3 30 30 30 27 0 30 -3
30 -30 0 -27 3 -30 30 -30 27 0 30 3 30 30 0 27 3 30 30 30 27 0 30 -3 30 -30
0 -27 -3 -30 -30 -30 -27 0 -30 -3 -30 -30 l0 -30 60 0 60 0 0 90 0 90 -30 0
-30 0 0 150 0 150 30 0 30 0 0 -120z m660 90 l0 -30 60 0 60 0 0 -30 c0 -27
-3 -30 -30 -30 l-30 0 0 -90 0 -90 30 0 c27 0 30 -3 30 -30 l0 -30 -60 0 -60
0 0 -120 0 -120 -60 0 -60 0 0 30 c0 27 -3 30 -30 30 -27 0 -30 -3 -30 -30 0
-27 -3 -30 -30 -30 -27 0 -30 3 -30 30 0 27 3 30 30 30 l30 0 0 90 0 90 -30 0
c-27 0 -30 3 -30 30 0 27 3 30 30 30 27 0 30 3 30 30 0 27 3 30 30 30 27 0 30
3 30 30 0 27 3 30 30 30 27 0 30 3 30 30 0 27 3 30 30 30 27 0 30 3 30 30 0
27 -3 30 -30 30 -27 0 -30 3 -30 30 0 27 3 30 30 30 27 0 30 -3 30 -30z
m-2270 -60 c0 -27 -3 -30 -30 -30 l-30 0 0 -60 0 -60 30 0 c27 0 30 3 30 30 0
27 3 30 30 30 l30 0 0 -90 0 -90 30 0 30 0 0 -90 0 -90 -30 0 c-27 0 -30 3
-30 30 0 27 -3 30 -30 30 l-30 0 0 -60 0 -60 30 0 c27 0 30 -3 30 -30 l0 -31
-117 3 -118 3 -3 28 c-3 24 0 27 27 27 28 0 31 3 31 30 0 27 -3 30 -30 30 -27
0 -30 3 -30 30 0 27 3 30 30 30 l30 0 0 60 0 60 -30 0 c-27 0 -30 3 -30 30 0
27 -3 30 -30 30 l-30 0 0 61 c0 60 0 60 -27 57 -16 -2 -29 -9 -29 -15 -1 -7
-2 -20 -3 -28 0 -9 -11 -15 -25 -15 -19 0 -25 6 -28 30 -4 28 -3 30 29 30 32
0 34 2 31 28 -3 23 1 27 25 30 24 3 27 0 27 -27 0 -28 3 -31 29 -31 25 0 30
-4 33 -27 2 -22 9 -29 31 -31 l27 -3 0 90 0 91 60 0 60 0 0 -30z m300 -120 l0
-90 -90 0 -90 0 0 90 0 90 90 0 90 0 0 -90z m1190 0 l0 -90 -90 0 -90 0 0 90
0 90 90 0 90 0 0 -90z m900 -240 c0 -27 3 -30 30 -30 27 0 30 3 30 30 0 27 3
30 30 30 l30 0 0 -60 0 -60 31 0 c27 0 30 -3 27 -27 -3 -27 -6 -28 -60 -31
l-58 -3 0 31 c0 27 -3 30 -30 30 -27 0 -30 -3 -30 -30 0 -27 -3 -30 -30 -30
l-30 0 0 90 0 90 30 0 c27 0 30 -3 30 -30z m-420 -90 l0 -60 -30 0 -30 0 0 60
0 60 30 0 30 0 0 -60z m480 -151 c0 -27 3 -30 28 -27 21 2 28 9 30 31 3 23 8
27 33 27 l30 0 -3 -87 -3 -88 -34 -3 c-55 -6 -81 5 -81 33 0 21 -5 25 -30 25
l-30 0 0 60 0 60 30 0 c27 0 30 -3 30 -31z m-2510 -59 c0 -27 3 -30 30 -30 27
0 30 3 30 30 0 27 3 30 30 30 l30 0 0 -84 0 -85 -27 -3 c-22 -2 -29 -9 -31
-30 -3 -24 -8 -28 -33 -28 -26 0 -29 -3 -29 -30 0 -27 -3 -30 -31 -30 -27 0
-30 3 -27 28 2 21 9 28 31 30 23 3 27 8 27 33 l0 30 -57 -3 c-55 -3 -58 -4
-61 -30 l-3 -28 -84 0 c-86 0 -97 5 -87 43 3 13 15 17 58 17 51 0 54 1 54 25
0 23 -12 30 -41 27 -4 -1 -9 12 -11 28 l-5 30 89 0 88 0 0 30 c0 27 3 30 30
30 27 0 30 -3 30 -30z m2508 -172 c3 -25 0 -28 -27 -28 -26 0 -31 4 -31 23 0
30 9 39 35 35 13 -2 21 -12 23 -30z m120 -30 l3 -58 -31 0 -30 0 0 -61 c0 -60
0 -60 28 -57 21 2 28 9 30 31 3 24 7 28 30 25 21 -2 27 -8 27 -28 -1 -20 -7
-26 -30 -30 -29 -5 -30 -7 -30 -60 l0 -55 -57 -3 -58 -3 0 31 c0 27 3 30 30
30 27 0 30 3 30 30 0 27 -3 30 -30 30 l-30 0 0 60 0 60 30 0 30 0 0 61 c0 60
0 60 28 57 26 -3 27 -6 30 -60z m-3638 -58 l0 -60 60 0 60 0 0 -30 0 -30 -120
0 -120 0 0 30 c0 27 3 30 30 30 l30 0 0 60 0 60 30 0 30 0 0 -60z m120 30 c0
-27 -3 -30 -30 -30 -27 0 -30 3 -30 30 0 27 3 30 30 30 27 0 30 -3 30 -30z
m180 0 c0 -27 -3 -30 -30 -30 -27 0 -30 3 -30 30 0 27 3 30 30 30 27 0 30 -3
30 -30z m-480 -60 c0 -27 -3 -30 -30 -30 -27 0 -30 3 -30 30 0 27 3 30 30 30
27 0 30 -3 30 -30z m3640 -60 c0 -27 -3 -30 -30 -30 -27 0 -30 3 -30 30 0 27
3 30 30 30 27 0 30 -3 30 -30z m-3460 -120 c0 -27 -3 -30 -30 -30 -27 0 -30 3
-30 30 0 27 3 30 30 30 27 0 30 -3 30 -30z m120 0 c0 -27 -3 -30 -30 -30 -27
0 -30 3 -30 30 0 27 3 30 30 30 27 0 30 -3 30 -30z m60 -180 l0 -90 -90 0 -90
0 0 90 0 90 90 0 90 0 0 -90z m3570 0 l0 -90 -85 0 -85 0 0 90 0 90 85 0 85 0
0 -90z m180 -60 c0 -27 3 -30 30 -30 l30 0 0 -90 0 -90 -30 0 c-27 0 -30 -3
-30 -30 0 -27 3 -30 30 -30 27 0 30 -3 30 -30 l0 -30 -60 0 -60 0 0 -30 0 -31
-57 3 c-55 3 -58 4 -61 31 -3 24 0 27 27 27 l31 0 0 60 0 60 30 0 c27 0 30 3
30 29 0 25 -4 30 -27 33 -22 2 -29 9 -31 31 -3 24 0 27 27 27 28 0 31 3 31 29
0 25 -4 30 -27 33 -22 2 -29 9 -31 31 -3 27 -3 27 57 27 l61 0 0 -30z m-3155
-447 c-3 -54 -5 -58 -28 -61 -24 -3 -25 -1 -29 57 l-3 61 31 0 32 0 -3 -57z
m-57 -150 c-2 -22 -9 -29 -30 -31 -25 -3 -28 0 -28 27 0 28 3 31 31 31 27 0
30 -3 27 -27z m3152 -4 c0 -27 -3 -30 -27 -27 -22 2 -29 9 -31 31 -3 24 0 27
27 27 28 0 31 -3 31 -31z m-3272 -56 c-2 -22 -9 -29 -30 -31 -25 -3 -28 0 -28
27 0 28 3 31 31 31 27 0 30 -3 27 -27z m892 -149 c0 -53 0 -54 -30 -54 -30 0
-30 1 -30 54 0 49 2 55 23 58 34 6 37 1 37 -58z m-1672 -26 c3 -25 0 -28 -27
-28 -28 0 -31 3 -31 31 0 27 3 30 28 27 21 -2 28 -9 30 -30z m1792 2 c0 -27
-3 -30 -30 -30 -27 0 -30 3 -30 30 0 27 3 30 30 30 27 0 30 -3 30 -30z m-1610
-120 c0 -27 -3 -30 -30 -30 -27 0 -30 3 -30 30 0 27 3 30 30 30 27 0 30 -3 30
-30z m3518 -62 c3 -25 0 -28 -27 -28 -28 0 -31 3 -31 31 0 27 3 30 28 27 21
-2 28 -9 30 -30z m-3338 -118 l0 -90 -90 0 -90 0 0 90 0 90 90 0 90 0 0 -90z
m1190 0 l0 -90 -90 0 -90 0 0 90 0 90 90 0 90 0 0 -90z m2380 0 l0 -90 -85 0
-85 0 0 90 0 90 85 0 85 0 0 -90z m-230 0 c0 -27 -3 -30 -30 -30 -27 0 -30 3
-30 30 0 27 3 30 30 30 27 0 30 -3 30 -30z m470 -30 l0 -60 -30 0 -30 0 0 -60
0 -60 -60 0 -60 0 0 -121 0 -120 -27 3 c-28 3 -28 3 -31 90 -3 86 -3 87 -30
90 -23 2 -28 8 -30 37 -2 19 -1 44 2 57 6 23 10 24 91 24 l85 0 0 60 0 60 30
0 c27 0 30 3 30 30 0 27 3 30 30 30 l30 0 0 -60z m-4050 -60 l0 -60 90 0 90 0
0 -30 0 -30 -90 0 -90 0 0 30 c0 27 -3 30 -30 30 -27 0 -30 -3 -30 -30 0 -27
-3 -30 -30 -30 -27 0 -30 3 -30 30 0 27 3 30 30 30 l30 0 0 60 0 60 30 0 30 0
0 -60z m950 -30 c0 -30 -1 -30 -55 -30 -57 0 -74 12 -61 45 4 11 21 15 61 15
54 0 55 0 55 -30z m-410 -180 c0 -27 -3 -30 -30 -30 -27 0 -30 3 -30 30 0 27
3 30 30 30 27 0 30 -3 30 -30z m0 -180 l0 -90 -30 0 -30 0 0 90 0 90 30 0 30
0 0 -90z m1370 -360 c0 -27 -3 -30 -30 -30 -27 0 -30 3 -30 30 0 27 3 30 30
30 27 0 30 -3 30 -30z m1310 0 c0 -27 3 -30 30 -30 27 0 30 -3 30 -30 0 -27
-3 -30 -30 -30 -27 0 -30 3 -30 30 0 27 -3 30 -30 30 -27 0 -30 3 -30 30 0 27
3 30 30 30 27 0 30 -3 30 -30z m-1790 -350 l0 -90 -90 0 -90 0 0 90 0 90 90 0
90 0 0 -90z m1190 0 l0 -90 -90 0 -90 0 0 90 0 90 90 0 90 0 0 -90z m1190 0
l0 -90 -85 0 -85 0 0 90 0 90 85 0 85 0 0 -90z m-1780 -120 l0 -30 -60 0 -60
0 0 -30 c0 -27 -3 -30 -30 -30 -27 0 -30 3 -30 30 0 27 3 30 30 30 27 0 30 3
30 30 l0 30 60 0 60 0 0 -30z m1550 0 l0 -30 115 0 115 0 0 -60 0 -60 -85 0
-85 0 0 30 c0 27 -3 30 -29 30 -25 0 -30 -4 -33 -27 -2 -22 -9 -29 -30 -31
-25 -3 -28 0 -28 27 0 28 -3 31 -30 31 l-30 0 0 60 0 60 60 0 60 0 0 -30z
m-1550 -120 c0 -27 3 -30 31 -30 27 0 30 -3 27 -27 -3 -27 -6 -28 -60 -31
l-58 -3 0 61 0 60 30 0 c27 0 30 -3 30 -30z m1900 0 c0 -27 -3 -30 -30 -30
-27 0 -30 3 -30 30 0 27 3 30 30 30 27 0 30 -3 30 -30z m120 0 c0 -27 -3 -30
-30 -30 -27 0 -30 3 -30 30 0 27 3 30 30 30 27 0 30 -3 30 -30z"/>
<path d="M2070 4030 c0 -27 3 -30 30 -30 27 0 30 3 30 30 0 27 -3 30 -30 30
-27 0 -30 -3 -30 -30z"/>
<path d="M3380 4030 c0 -27 -3 -30 -30 -30 -27 0 -30 -3 -30 -30 0 -27 -3 -30
-30 -30 -27 0 -30 -3 -30 -30 0 -27 -3 -30 -30 -30 -27 0 -30 -3 -30 -30 0
-27 3 -30 30 -30 27 0 30 3 30 30 0 27 3 30 30 30 27 0 30 3 30 30 0 27 3 30
30 30 27 0 30 -3 30 -30 0 -27 3 -30 30 -30 l30 0 0 90 0 90 -30 0 c-27 0 -30
-3 -30 -30z"/>
<path d="M940 3970 c0 -27 3 -30 30 -30 l30 0 0 -60 0 -60 -30 0 c-27 0 -30
-3 -30 -30 l0 -30 60 0 61 0 -3 -57 c-3 -55 -4 -58 -30 -61 -25 -3 -28 0 -28
27 0 28 -3 31 -30 31 -27 0 -30 -3 -30 -30 0 -27 3 -30 30 -30 l30 0 0 -60 0
-61 88 3 c87 3 87 3 90 31 3 24 0 27 -27 27 l-31 0 0 120 0 120 -30 0 -30 0 0
60 0 60 -30 0 c-27 0 -30 3 -30 30 0 27 -3 30 -30 30 -27 0 -30 -3 -30 -30z"/>
<path d="M2550 3910 c0 -30 1 -30 54 -30 40 0 55 4 60 16 15 38 8 44 -54 44
l-60 0 0 -30z"/>
<path d="M760 3850 c0 -27 3 -30 30 -30 27 0 30 3 30 30 0 27 -3 30 -30 30
-27 0 -30 -3 -30 -30z"/>
<path d="M2070 3820 l0 -60 -30 0 c-27 0 -30 3 -30 30 0 27 -3 30 -30 30 -27
0 -30 -3 -30 -30 0 -27 -3 -30 -30 -30 -27 0 -30 -3 -30 -30 0 -27 3 -30 30
-30 27 0 30 -3 30 -30 0 -27 3 -30 30 -30 l30 0 0 -60 0 -60 -30 0 c-27 0 -30
3 -30 30 0 27 -3 30 -30 30 -27 0 -30 3 -30 30 0 27 -3 30 -30 30 -27 0 -30
-3 -30 -30 0 -27 -3 -30 -30 -30 -27 0 -30 3 -30 30 0 27 -3 30 -30 30 -27 0
-30 -3 -30 -30 0 -27 3 -30 30 -30 27 0 30 -3 30 -30 0 -27 3 -30 30 -30 27 0
30 -3 30 -30 l0 -30 90 0 90 0 0 30 c0 27 3 30 30 30 l31 0 -3 -57 -3 -58 -58
0 c-56 0 -57 -1 -57 -27 0 -24 4 -28 30 -28 27 0 30 -3 30 -30 l0 -30 90 0 90
0 0 -60 0 -60 -30 0 c-27 0 -30 3 -30 30 0 27 -3 30 -30 30 -27 0 -30 -3 -30
-30 0 -27 -3 -30 -30 -30 -27 0 -30 3 -30 30 0 27 -3 30 -30 30 -27 0 -30 3
-30 30 0 27 -3 30 -30 30 -27 0 -30 -3 -30 -30 0 -27 -3 -30 -30 -30 -27 0
-30 -3 -30 -30 0 -27 3 -30 30 -30 27 0 30 -3 30 -30 0 -27 3 -30 30 -30 27 0
30 -3 30 -30 l0 -30 -60 0 -60 0 0 30 c0 27 -3 30 -30 30 l-30 0 0 90 0 90
-60 0 c-60 0 -60 0 -60 -29 0 -25 -4 -30 -27 -33 l-28 -3 -3 -117 -3 -118 -29
0 c-30 0 -30 0 -30 60 l0 60 -30 0 c-27 0 -30 -3 -30 -30 0 -27 -3 -30 -30
-30 -27 0 -30 -3 -30 -30 0 -27 3 -30 30 -30 27 0 30 -3 30 -30 0 -27 -3 -30
-30 -30 -27 0 -30 -3 -30 -30 0 -27 3 -30 30 -30 27 0 30 -3 30 -30 0 -27 -3
-30 -30 -30 -27 0 -30 -3 -30 -30 0 -27 -3 -30 -30 -30 -27 0 -30 -3 -30 -30
0 -27 -3 -30 -30 -30 l-31 0 3 -57 c3 -55 5 -58 30 -61 25 -3 27 -7 30 -60 3
-54 5 -57 31 -60 l27 -3 0 -120 0 -119 30 0 30 0 0 60 0 60 30 0 30 0 0 -60 0
-60 30 0 c27 0 30 3 30 30 0 27 3 30 30 30 27 0 30 3 30 30 0 27 3 30 30 30
27 0 30 -3 30 -30 0 -27 3 -30 30 -30 27 0 30 3 30 30 0 27 3 30 30 30 27 0
30 -3 30 -30 0 -27 3 -30 30 -30 l30 0 0 60 0 60 30 0 c27 0 30 -3 30 -30 0
-27 3 -30 30 -30 27 0 30 -3 30 -30 0 -27 3 -30 30 -30 27 0 30 -3 30 -30 0
-27 3 -30 30 -30 l30 0 0 -61 0 -61 60 4 61 3 -3 -30 c-2 -24 -8 -31 -30 -33
-22 -3 -28 -9 -28 -28 0 -20 5 -24 30 -24 27 0 30 -3 30 -30 0 -27 -3 -30 -30
-30 -27 0 -30 -3 -30 -30 0 -27 3 -30 30 -30 27 0 30 -3 30 -30 0 -27 -3 -30
-30 -30 -27 0 -30 -3 -30 -30 l0 -30 60 0 60 0 0 -60 0 -60 -30 0 c-27 0 -30
3 -30 30 l0 30 -90 0 -90 0 0 -60 0 -60 -30 0 -30 0 0 -60 0 -60 -30 0 c-27 0
-30 -3 -30 -30 0 -27 3 -30 30 -30 27 0 30 -3 30 -30 0 -27 -3 -30 -30 -30
-27 0 -30 -3 -30 -30 l0 -30 60 0 60 0 0 60 0 60 -30 0 c-27 0 -30 3 -30 30 0
27 3 30 30 30 27 0 30 3 30 30 0 27 3 30 30 30 27 0 30 -3 30 -30 0 -27 3 -30
30 -30 l30 0 0 -60 0 -60 -30 0 -30 0 0 -60 0 -60 -60 0 -60 0 0 -30 c0 -27
-3 -30 -30 -30 -27 0 -30 -3 -30 -30 0 -27 -3 -30 -30 -30 -27 0 -30 3 -30 30
0 27 -3 30 -30 30 -27 0 -30 3 -30 30 0 27 3 30 30 30 27 0 30 3 30 30 0 27
-3 30 -30 30 -27 0 -30 3 -30 30 0 27 3 30 30 30 l30 0 0 60 0 60 -30 0 -30 0
0 -60 0 -60 -90 0 -90 0 0 -60 0 -60 30 0 c27 0 30 -3 30 -30 l0 -30 -60 0
-60 0 0 -30 0 -30 -60 0 -60 0 0 -30 0 -30 60 0 60 0 0 -30 c0 -27 -3 -30 -30
-30 -27 0 -30 -3 -30 -30 l0 -30 -60 0 c-60 0 -60 0 -60 29 0 25 -4 30 -27 33
-22 2 -29 9 -31 31 -3 23 -8 27 -33 27 l-30 0 3 -87 c3 -87 3 -88 30 -91 21
-3 27 -9 30 -30 2 -21 9 -28 31 -30 24 -3 27 0 27 27 0 28 3 31 30 31 27 0 30
-3 30 -30 0 -27 3 -30 30 -30 l30 0 0 60 0 60 30 0 30 0 0 -60 0 -60 60 0 60
0 0 60 0 60 -30 0 c-27 0 -30 3 -30 30 0 27 3 30 30 30 27 0 30 3 30 30 0 27
3 30 30 30 27 0 30 3 30 30 0 27 -3 30 -30 30 -27 0 -30 3 -30 30 l0 30 60 0
60 0 0 -30 c0 -27 3 -30 30 -30 27 0 30 -3 30 -30 0 -27 3 -30 30 -30 27 0 30
3 30 30 0 27 3 30 30 30 27 0 30 3 30 30 0 27 3 30 30 30 27 0 30 -3 30 -30
l0 -30 60 0 60 0 0 -60 0 -60 -30 0 c-27 0 -30 3 -30 30 0 27 -3 30 -30 30
l-30 0 0 -60 0 -60 60 0 60 0 0 30 0 30 60 0 60 0 0 30 c0 27 -3 30 -30 30
-27 0 -30 3 -30 30 0 27 3 30 30 30 27 0 30 3 30 30 0 27 -3 30 -30 30 -27 0
-30 3 -30 30 0 27 -3 30 -30 30 -27 0 -30 3 -30 30 l0 30 60 0 60 0 0 -30 0
-30 60 0 60 0 0 -60 0 -60 -30 0 c-27 0 -30 -3 -30 -30 0 -27 3 -30 30 -30 27
0 30 -3 30 -31 0 -27 3 -30 28 -27 21 2 28 9 30 31 3 23 8 27 33 27 26 0 29
-3 29 -30 0 -27 3 -30 31 -30 27 0 30 3 27 28 -2 21 -9 28 -30 30 -23 3 -28 8
-28 32 0 28 1 29 58 32 54 3 57 4 60 30 3 25 0 28 -27 28 -25 0 -30 4 -33 27
-2 22 -9 29 -30 31 -23 3 -27 -1 -30 -25 -2 -22 -9 -29 -30 -31 -25 -3 -28 0
-28 27 0 28 -3 31 -30 31 -27 0 -30 3 -30 30 0 28 1 29 58 32 l57 3 3 88 3 87
29 0 30 0 0 -120 0 -120 29 0 c17 0 29 -5 28 -12 -1 -45 2 -48 58 -48 54 0 55
0 55 30 0 27 3 30 29 30 25 0 30 -4 33 -28 3 -26 6 -27 61 -30 l57 -3 0 31 c0
27 3 30 30 30 27 0 30 -3 30 -30 0 -27 3 -30 30 -30 27 0 30 -3 30 -30 l0 -30
-90 0 -90 0 0 -30 0 -30 90 0 90 0 0 -90 0 -90 30 0 30 0 0 90 0 90 30 0 c27
0 30 3 30 30 0 27 -3 30 -30 30 -27 0 -30 3 -30 30 0 27 -3 30 -30 30 l-30 0
0 60 0 60 30 0 c27 0 30 3 30 30 0 27 3 30 30 30 l30 0 0 60 0 60 30 0 c27 0
30 -3 30 -30 0 -27 3 -30 30 -30 27 0 30 -3 30 -30 l0 -30 60 0 60 0 0 60 0
60 -30 0 c-27 0 -30 3 -30 30 0 27 3 30 30 30 l30 0 0 60 0 60 60 0 60 0 0
-30 c0 -27 -3 -30 -30 -30 -27 0 -30 -3 -30 -30 0 -27 3 -30 30 -30 l30 0 0
-90 0 -90 -30 0 c-27 0 -30 -3 -30 -30 l0 -30 -150 0 -150 0 0 -30 c0 -27 3
-30 30 -30 27 0 30 -3 30 -30 l0 -30 60 0 60 0 0 -60 0 -60 -60 0 -60 0 0 -30
c0 -27 -3 -30 -30 -30 -27 0 -30 -3 -30 -30 l0 -30 60 0 60 0 0 -30 c0 -27 -3
-30 -30 -30 -27 0 -30 -3 -30 -30 0 -27 3 -30 30 -30 27 0 30 -3 30 -30 0 -27
3 -30 30 -30 27 0 30 3 30 30 0 27 -3 30 -30 30 -27 0 -30 3 -30 30 0 27 3 30
30 30 l30 0 0 90 0 90 30 0 c27 0 30 -3 30 -30 0 -27 3 -30 30 -30 27 0 30 3
30 30 0 27 -3 30 -30 30 l-30 0 0 60 0 60 -30 0 c-27 0 -30 3 -30 30 l0 30 60
0 60 0 0 30 c0 27 3 30 30 30 27 0 30 3 30 30 0 27 3 30 30 30 l30 0 0 210 0
210 -90 0 -90 0 0 90 0 90 30 0 c27 0 30 3 30 30 0 27 -3 30 -30 30 -27 0 -30
-3 -30 -30 0 -27 -3 -30 -30 -30 -27 0 -30 3 -30 30 l0 30 -60 0 -60 0 0 -60
0 -60 30 0 c27 0 30 -3 30 -30 0 -27 -3 -30 -30 -30 -27 0 -30 -3 -30 -30 0
-27 3 -30 30 -30 27 0 30 -3 30 -30 0 -27 -3 -30 -30 -30 l-30 0 0 -90 0 -90
-30 0 c-27 0 -30 3 -30 30 l0 30 -60 0 -60 0 0 60 0 60 60 0 60 0 0 30 0 30
-60 0 -60 0 0 30 0 30 60 0 60 0 0 30 c0 27 -3 30 -30 30 l-30 0 0 83 c0 46
-2 86 -5 89 -3 3 -17 3 -30 0 -18 -3 -25 -11 -25 -28 0 -20 -5 -24 -30 -24
-30 0 -30 1 -30 54 0 52 -1 55 -27 58 -22 2 -29 9 -31 31 -3 27 -3 27 57 27
l61 0 0 -30 0 -31 58 3 c54 3 57 4 60 31 3 23 8 27 33 27 26 0 29 3 29 30 0
27 3 30 30 30 l30 0 0 -89 0 -89 30 2 c30 1 30 1 30 58 0 58 0 58 30 58 27 0
30 -3 30 -30 0 -27 3 -30 30 -30 26 0 30 -4 30 -28 0 -25 4 -28 38 -30 62 -2
82 5 82 33 0 21 5 25 30 25 27 0 30 3 30 30 0 27 -3 30 -30 30 -27 0 -30 3
-30 30 0 27 3 30 30 30 27 0 30 3 30 30 0 27 -3 30 -30 30 -27 0 -30 -3 -30
-30 l0 -30 -60 0 -60 0 0 -30 c0 -27 -3 -30 -30 -30 -27 0 -30 3 -30 30 0 27
-3 30 -30 30 -27 0 -30 3 -30 30 0 27 3 30 30 30 l30 0 0 60 0 60 -30 0 c-27
0 -30 3 -30 30 0 27 -3 30 -30 30 -27 0 -30 3 -30 30 0 27 -3 30 -30 30 -27 0
-30 -3 -30 -30 0 -27 -3 -30 -30 -30 l-30 0 0 60 0 60 30 0 c27 0 30 3 30 30
l0 30 -60 0 -60 0 0 30 c0 27 3 30 30 30 l30 0 0 90 0 90 30 0 c27 0 30 3 30
30 l0 30 -60 0 -60 0 0 90 0 90 60 0 60 0 0 30 0 30 -90 0 -90 0 0 30 c0 27
-3 30 -30 30 -27 0 -30 -3 -30 -30 0 -27 3 -30 30 -30 l30 0 0 -60 0 -60 -30
0 c-27 0 -30 3 -30 30 l0 30 -60 0 -60 0 0 -30 0 -30 60 0 60 0 0 -30 0 -30
-120 0 -120 0 0 30 c0 27 3 30 30 30 27 0 30 3 30 30 l0 30 -85 0 c-84 0 -85
0 -86 25 -5 91 -5 90 24 93 23 3 27 8 27 33 0 26 3 29 30 29 27 0 30 -3 30
-30 0 -27 3 -30 29 -30 25 0 30 4 33 28 2 21 9 28 31 30 27 3 27 3 27 -57 l0
-61 30 0 30 0 0 60 c0 60 0 60 -29 60 -25 0 -30 4 -33 28 -3 26 -6 27 -60 30
l-58 3 0 54 c0 54 0 55 29 55 25 0 30 -4 33 -27 3 -24 7 -28 31 -26 24 2 27
-1 27 -27 0 -30 0 -30 60 -30 l60 0 0 55 0 55 60 0 60 0 0 60 0 60 60 0 60 0
0 30 0 30 -60 0 -60 0 0 30 c0 27 -3 30 -30 30 l-30 0 0 -60 0 -60 -30 0 -30
0 0 90 0 90 -30 0 -30 0 0 -60 0 -60 -30 0 c-27 0 -30 3 -30 30 0 27 -3 30
-30 30 l-30 0 0 -60 0 -60 59 0 c58 0 60 -1 63 -27 2 -22 9 -29 31 -31 23 -3
27 -8 27 -33 0 -26 -3 -29 -30 -29 -27 0 -30 -3 -30 -30 0 -30 -11 -37 -44
-24 -12 5 -16 20 -16 60 l0 53 -57 3 -58 3 -3 87 -3 87 -57 3 -57 3 1 58 c1
56 1 57 -27 57 -23 0 -28 -5 -31 -27 -2 -22 -9 -29 -30 -31 -25 -3 -28 0 -28
27 l0 31 -60 0 -60 0 0 -30 c0 -27 -3 -30 -30 -30 l-30 0 0 -90 0 -90 -60 0
-60 0 0 -60 0 -60 -30 0 c-25 0 -30 -4 -30 -25 0 -20 -6 -27 -30 -31 -23 -5
-30 -12 -30 -30 0 -20 -5 -24 -30 -24 -26 0 -30 3 -30 29 0 24 4 28 28 27 26
-1 27 1 30 57 3 56 4 57 32 57 30 0 30 0 30 60 l0 60 30 0 c27 0 30 3 30 30 0
27 -3 30 -30 30 -27 0 -30 -3 -30 -30 0 -27 -3 -30 -30 -30 l-30 0 0 60 0 60
30 0 c27 0 30 3 30 30 0 27 -3 30 -30 30 -27 0 -30 3 -30 30 0 27 -3 30 -30
30 l-30 0 0 -60z m-60 -90 c0 -27 -3 -30 -30 -30 -27 0 -30 3 -30 30 0 27 3
30 30 30 27 0 30 -3 30 -30z m540 0 c0 -27 -3 -30 -30 -30 -27 0 -30 -3 -30
-30 0 -27 3 -30 30 -30 27 0 30 -3 30 -30 l0 -30 61 0 c60 0 60 0 57 -27 -2
-22 -9 -29 -31 -31 -27 -3 -28 -5 -25 -60 2 -42 7 -57 18 -58 8 -1 21 -2 28
-3 6 0 12 -12 12 -26 0 -20 5 -25 25 -25 21 0 25 -5 25 -30 0 -25 -4 -30 -24
-30 -19 0 -25 6 -28 28 -3 26 -6 27 -60 30 l-58 3 0 114 0 115 -60 0 -60 0 0
-30 c0 -27 3 -30 30 -30 30 0 30 -1 30 -55 0 -53 0 -54 -32 -60 -18 -3 -42 -3
-53 -1 -11 3 -23 5 -27 5 -5 1 -8 12 -8 26 0 21 -5 25 -30 25 -30 0 -30 0 -30
-58 0 -56 1 -58 28 -57 22 0 28 -5 30 -27 3 -24 8 -28 33 -28 26 0 29 3 29 31
0 27 3 30 28 27 21 -2 28 -9 30 -30 3 -21 9 -27 30 -30 21 -2 28 -9 30 -30 3
-25 0 -28 -27 -28 -28 0 -31 -3 -31 -30 0 -28 1 -29 58 -32 53 -3 57 -5 57
-28 0 -20 -6 -26 -27 -28 l-28 -3 0 -90 0 -89 30 0 c27 0 30 -3 30 -30 0 -27
3 -30 30 -30 27 0 30 -3 30 -30 0 -25 4 -30 25 -30 21 0 25 5 25 30 0 27 3 30
30 30 l29 0 3 -87 3 -88 58 -3 c56 -3 57 -4 57 -32 0 -30 0 -30 60 -30 l60 0
0 30 c0 27 3 30 30 30 27 0 30 3 30 30 0 27 3 30 30 30 27 0 30 -3 30 -30 0
-27 -3 -30 -30 -30 l-30 0 0 -60 0 -60 -120 0 -120 0 0 -30 c0 -27 3 -30 30
-30 27 0 30 -3 30 -30 0 -27 -3 -30 -30 -30 -27 0 -30 -3 -30 -30 0 -27 3 -30
30 -30 l30 0 0 -60 0 -60 30 0 30 0 0 120 0 120 60 0 60 0 0 -30 c0 -27 -3
-30 -30 -30 -27 0 -30 -3 -30 -30 l0 -30 60 0 60 0 0 30 c0 27 3 30 30 30 27
0 30 -3 30 -30 0 -27 3 -30 30 -30 27 0 30 3 30 30 0 27 3 30 30 30 l30 0 0
-90 0 -90 -30 0 c-27 0 -30 -3 -30 -30 0 -27 -3 -30 -30 -30 -27 0 -30 3 -30
30 0 27 -3 30 -30 30 -27 0 -30 -3 -30 -30 0 -27 -3 -30 -30 -30 -27 0 -30 3
-30 30 0 27 -3 30 -30 30 -27 0 -30 -3 -30 -30 l0 -31 -57 3 c-55 3 -58 4 -61
31 -3 23 -8 27 -33 27 -26 0 -29 -3 -29 -30 0 -27 -3 -30 -30 -30 l-30 0 0
-84 0 -84 30 -7 c23 -5 30 -12 30 -31 0 -20 5 -24 30 -24 27 0 30 -3 30 -30 0
-27 3 -30 30 -30 27 0 30 -3 30 -30 0 -27 3 -30 30 -30 27 0 30 3 30 30 0 27
3 30 30 30 27 0 30 -3 30 -30 0 -27 -3 -30 -30 -30 -27 0 -30 -3 -30 -30 l0
-29 -117 -3 -118 -3 -3 -27 c-3 -27 -6 -28 -57 -28 l-54 0 -3 -87 -3 -88 -57
-3 -57 -3 -3 -57 -3 -57 -57 -3 -58 -3 0 91 0 90 -30 0 -30 0 0 -60 0 -60 -30
0 c-27 0 -30 -3 -30 -30 0 -27 3 -30 30 -30 27 0 30 -3 30 -30 0 -27 -3 -30
-30 -30 -27 0 -30 3 -30 30 l0 30 -60 0 -60 0 0 30 c0 27 -3 30 -30 30 -27 0
-30 3 -30 30 0 27 3 30 30 30 27 0 30 3 30 30 0 27 3 30 30 30 27 0 30 -3 30
-30 0 -27 3 -30 30 -30 27 0 30 3 30 30 0 27 3 30 30 30 27 0 30 3 30 30 0 27
3 30 30 30 27 0 30 -3 30 -30 0 -27 3 -30 30 -30 27 0 30 -3 30 -30 0 -27 3
-30 30 -30 l31 0 -3 58 c-3 54 -4 57 -30 60 -27 3 -28 5 -28 63 l0 59 -90 0
-90 0 0 61 c0 60 0 60 28 57 21 -2 28 -9 30 -30 3 -24 8 -28 33 -28 29 0 29 0
29 60 l0 60 -60 0 -60 0 0 58 c0 56 -1 58 -27 57 l-28 0 -3 118 -3 117 61 0
60 0 0 30 c0 27 -3 30 -30 30 -27 0 -30 3 -30 30 0 27 -3 30 -30 30 -27 0 -30
-3 -30 -30 0 -27 -3 -30 -30 -30 -27 0 -30 3 -30 30 0 27 -3 30 -30 30 l-30 0
0 -60 0 -60 30 0 c27 0 30 -3 30 -30 l0 -30 -60 0 -60 0 0 90 0 90 30 0 c27 0
30 3 30 30 0 27 3 30 30 30 27 0 30 3 30 30 l0 30 -180 0 -180 0 0 -30 c0 -27
-3 -30 -30 -30 -27 0 -30 -3 -30 -30 0 -27 3 -30 30 -30 27 0 30 -3 30 -30 0
-27 -3 -30 -30 -30 -27 0 -30 -3 -30 -30 0 -27 -3 -30 -30 -30 -27 0 -30 3
-30 30 0 27 -3 30 -30 30 -27 0 -30 -3 -30 -30 l0 -30 -60 0 -60 0 0 90 0 90
-30 0 c-27 0 -30 -3 -30 -30 0 -27 -3 -30 -30 -30 -27 0 -30 3 -30 30 0 27 3
30 30 30 27 0 30 3 30 30 0 27 3 30 30 30 27 0 30 3 30 30 0 27 3 30 30 30 27
0 30 -3 30 -30 0 -27 3 -30 30 -30 l30 0 0 60 0 60 90 0 90 0 0 -30 0 -30 90
0 90 0 0 60 0 60 -30 0 c-27 0 -30 -3 -30 -30 0 -27 -3 -30 -30 -30 l-30 0 0
60 0 60 30 0 c27 0 30 3 30 30 0 27 -3 30 -30 30 l-30 0 0 60 0 60 30 0 30 0
0 -60 0 -60 60 0 60 0 0 90 0 90 60 0 60 0 0 60 0 60 30 0 c27 0 30 3 30 30 0
27 3 30 30 30 l31 0 -3 58 c-3 63 3 58 -85 61 -30 1 -33 4 -33 31 0 19 5 30
13 29 35 -4 47 2 47 26 0 21 5 25 30 25 27 0 30 3 30 30 0 27 3 30 30 30 27 0
30 3 30 30 0 27 3 30 30 30 l30 0 0 90 0 90 60 0 60 0 0 -30z m-660 -180 c0
-27 -3 -30 -30 -30 -27 0 -30 3 -30 30 0 27 3 30 30 30 27 0 30 -3 30 -30z
m890 -60 c0 -25 -4 -30 -25 -30 -27 0 -41 20 -31 45 3 8 17 15 31 15 21 0 25
-5 25 -30z m-115 -230 c0 -20 -6 -26 -27 -28 -25 -3 -28 0 -28 28 0 28 3 31
28 28 21 -2 27 -8 27 -28z m-715 -60 c0 -27 3 -30 30 -30 27 0 30 -3 30 -30 0
-27 -3 -30 -30 -30 -27 0 -30 3 -30 30 0 27 -3 30 -30 30 -27 0 -30 3 -30 30
0 27 3 30 30 30 27 0 30 -3 30 -30z m-180 -120 c0 -27 3 -30 30 -30 27 0 30
-3 30 -30 0 -27 -3 -30 -30 -30 -27 0 -30 3 -30 30 l0 30 -60 0 -60 0 0 30 0
30 60 0 60 0 0 -30z m950 -80 c0 -27 0 -53 0 -57 0 -5 -11 -9 -25 -11 -17 -2
-25 2 -26 12 -1 9 -2 22 -3 29 0 6 -13 13 -28 15 -24 3 -28 8 -28 33 0 29 1
29 55 29 l55 0 0 -50z m-890 -160 l0 -90 -90 0 -90 0 0 90 0 90 90 0 90 0 0
-90z m1190 0 l0 -90 -90 0 -90 0 0 90 0 90 90 0 90 0 0 -90z m-1430 -90 l0
-60 -60 0 -60 0 0 -30 c0 -27 -3 -30 -30 -30 -27 0 -30 -3 -30 -31 0 -27 -3
-30 -27 -27 -22 2 -29 9 -31 31 -3 24 0 27 27 27 28 0 31 3 31 30 0 27 3 30
30 30 27 0 30 3 30 30 0 27 3 30 30 30 27 0 30 3 30 30 0 27 3 30 30 30 l30 0
0 -60z m420 -300 l0 -60 -30 0 c-27 0 -30 3 -30 30 0 27 -3 30 -30 30 -27 0
-30 3 -30 30 l0 30 60 0 60 0 0 -60z m890 -390 c0 -27 -3 -30 -30 -30 -27 0
-30 3 -30 30 0 27 3 30 30 30 27 0 30 -3 30 -30z m480 -290 c0 -27 3 -30 30
-30 27 0 30 -3 30 -30 0 -27 -3 -30 -30 -30 -27 0 -30 3 -30 30 0 27 -3 30
-30 30 -27 0 -30 3 -30 30 0 27 3 30 30 30 27 0 30 -3 30 -30z m-360 -120 l0
-90 -90 0 -90 0 0 90 0 90 90 0 90 0 0 -90z m-240 -60 l0 -90 -30 0 -30 0 0
-60 c0 -57 -1 -60 -25 -60 -24 0 -25 3 -25 60 0 57 1 60 25 60 25 0 25 1 25
83 0 46 3 87 7 90 3 4 17 7 30 7 22 0 23 -2 23 -90z m600 -30 l0 -60 -30 0
c-27 0 -30 -3 -30 -30 0 -27 -3 -30 -30 -30 -27 0 -30 3 -30 30 0 27 3 30 30
30 l30 0 0 60 0 60 30 0 30 0 0 -60z m-360 -90 c0 -27 3 -30 30 -30 27 0 30
-3 30 -30 0 -27 3 -30 30 -30 27 0 30 -3 30 -30 l0 -30 -60 0 -60 0 0 -30 c0
-27 -3 -30 -30 -30 -27 0 -30 -3 -30 -30 0 -27 -3 -30 -30 -30 -27 0 -30 3
-30 30 0 27 3 30 30 30 l30 0 0 120 0 120 30 0 c27 0 30 -3 30 -30z m180 0 c0
-27 -3 -30 -30 -30 -27 0 -30 3 -30 30 0 27 3 30 30 30 27 0 30 -3 30 -30z
m-360 -120 l0 -90 -85 0 -85 0 0 30 c0 30 1 30 55 30 l55 0 0 60 0 60 30 0 30
0 0 -90z m-410 -60 c0 -27 -3 -30 -30 -30 -27 0 -30 3 -30 30 0 27 3 30 30 30
27 0 30 -3 30 -30z m-660 -60 c0 -27 -3 -30 -30 -30 -27 0 -30 3 -30 30 0 27
3 30 30 30 27 0 30 -3 30 -30z m480 -120 c0 -27 -3 -30 -30 -30 -27 0 -30 3
-30 30 0 27 3 30 30 30 27 0 30 -3 30 -30z m-540 -60 l0 -30 -60 0 -60 0 0 30
0 30 60 0 60 0 0 -30z m1430 0 c0 -27 -3 -30 -30 -30 -27 0 -30 3 -30 30 0 27
3 30 30 30 27 0 30 -3 30 -30z m-1730 -181 c0 -27 -3 -30 -27 -27 -22 2 -29 9
-31 31 -3 24 0 27 27 27 28 0 31 -3 31 -31z"/>
<path d="M2370 3489 c0 -27 3 -30 28 -27 21 2 28 9 30 31 3 24 0 27 -27 27
-28 0 -31 -3 -31 -31z"/>
<path d="M2370 3200 c0 -27 -3 -30 -30 -30 l-30 0 0 -60 0 -60 -60 0 -60 0 0
-30 c0 -27 -3 -30 -30 -30 -27 0 -30 -3 -30 -30 0 -27 3 -30 30 -30 27 0 30
-3 30 -30 l0 -30 -60 0 -60 0 0 -120 0 -120 60 0 60 0 0 30 0 30 60 0 60 0 0
30 c0 27 3 30 30 30 27 0 30 -3 30 -30 0 -27 3 -30 30 -30 27 0 30 -3 30 -30
0 -27 3 -30 30 -30 l30 0 0 -60 0 -60 -60 0 -60 0 0 30 c0 27 -3 30 -30 30
-27 0 -30 3 -30 30 0 27 -3 30 -30 30 l-30 0 0 -60 0 -60 -30 0 c-27 0 -30 -3
-30 -30 0 -27 3 -30 30 -30 27 0 30 3 30 30 0 27 3 30 30 30 27 0 30 -3 30
-30 l0 -30 121 0 120 0 -3 -27 c-2 -22 -9 -29 -30 -31 -27 -3 -28 -5 -28 -63
0 -59 0 -59 -30 -59 -27 0 -30 -3 -30 -30 l0 -30 -60 0 -60 0 0 -30 c0 -27 3
-30 30 -30 27 0 30 -3 30 -30 0 -27 3 -30 30 -30 30 0 30 -1 30 -55 l0 -54 58
-3 57 -3 3 -57 3 -58 -31 0 c-27 0 -30 -3 -30 -30 0 -27 3 -30 30 -30 27 0 30
-3 30 -30 0 -30 1 -30 55 -30 54 0 56 1 62 30 4 23 11 30 29 30 22 0 23 3 26
88 l3 87 28 3 c24 3 28 7 25 30 -2 21 -8 27 -28 27 -20 0 -26 6 -28 28 -3 26
-6 27 -57 27 -51 0 -54 -1 -57 -27 -2 -23 -8 -28 -30 -29 -27 -1 -28 0 -28 57
0 59 0 59 -29 59 -25 0 -30 -4 -33 -27 -2 -22 -9 -29 -30 -31 -28 -3 -28 -3
-28 57 0 58 1 60 28 63 21 2 28 9 30 31 3 23 8 27 33 27 26 0 29 -3 29 -30 0
-27 3 -30 30 -30 27 0 30 -3 30 -30 0 -30 1 -30 55 -30 l55 0 0 60 0 60 -55 0
-55 0 0 90 0 90 30 0 c27 0 30 -3 30 -30 0 -25 4 -30 25 -30 22 0 24 -4 27
-57 l3 -58 58 -3 57 -3 0 60 c0 58 -1 60 -27 63 -22 2 -29 9 -31 31 -3 24 0
27 27 27 28 0 31 3 31 29 0 25 -4 30 -27 33 -22 2 -29 9 -31 31 -3 23 -8 27
-33 27 -29 0 -29 0 -29 -60 0 -57 -1 -60 -25 -60 -25 0 -25 1 -26 83 -1 45 -1
85 0 90 0 4 -26 7 -59 7 l-60 0 0 30 0 30 -60 0 c-60 0 -60 0 -60 29 0 25 4
30 28 33 21 2 28 9 30 31 3 23 8 27 33 27 26 0 29 -3 29 -31 0 -27 3 -30 28
-27 21 2 28 9 30 31 3 24 0 27 -27 27 -28 0 -31 3 -31 30 l0 30 -60 0 -60 0 0
30 c0 27 3 30 30 30 27 0 30 3 30 30 0 27 -3 30 -30 30 -27 0 -30 3 -30 30 0
27 -3 30 -30 30 -27 0 -30 3 -30 30 l0 30 60 0 60 0 0 30 c0 27 -3 30 -30 30
-27 0 -30 3 -30 30 0 27 -3 30 -30 30 -27 0 -30 -3 -30 -30z m0 -180 c0 -27 3
-30 30 -30 27 0 30 -3 30 -30 0 -27 -3 -30 -30 -30 -27 0 -30 3 -30 30 0 27
-3 30 -30 30 -27 0 -30 -3 -30 -30 0 -27 -3 -30 -30 -30 -27 0 -30 3 -30 30 0
27 3 30 30 30 27 0 30 3 30 30 0 27 3 30 30 30 27 0 30 -3 30 -30z m60 -210
l0 -60 -30 0 c-27 0 -30 3 -30 30 0 27 -3 30 -30 30 -27 0 -30 3 -30 30 l0 30
60 0 60 0 0 -60z m-180 -30 c0 -27 -3 -30 -30 -30 -27 0 -30 -3 -30 -30 0 -27
-3 -30 -30 -30 -27 0 -30 3 -30 30 0 27 3 30 30 30 27 0 30 3 30 30 0 27 3 30
30 30 27 0 30 -3 30 -30z m358 -237 c-2 -22 -9 -29 -30 -31 -25 -3 -28 0 -28
27 0 28 3 31 31 31 27 0 30 -3 27 -27z m60 -535 c-2 -17 -11 -24 -30 -26 -24
-3 -28 0 -28 22 0 22 4 26 31 26 26 0 30 -3 27 -22z m-63 -178 c0 -20 -6 -26
-27 -28 -25 -3 -28 0 -28 28 0 28 3 31 28 28 21 -2 27 -8 27 -28z"/>
<path d="M2610 2719 c0 -27 3 -30 27 -27 20 2 27 9 30 31 3 24 1 27 -27 27
-27 0 -30 -3 -30 -31z"/>
<path d="M1710 2600 l0 -30 60 0 60 0 0 30 0 30 -60 0 -60 0 0 -30z"/>
<path d="M1590 2480 l0 -30 60 0 60 0 0 -30 c0 -27 3 -30 30 -30 27 0 30 3 30
30 0 27 -3 30 -30 30 -27 0 -30 3 -30 30 l0 30 -60 0 -60 0 0 -30z"/>
<path d="M3080 2300 c0 -27 3 -30 30 -30 27 0 30 3 30 30 0 27 -3 30 -30 30
-27 0 -30 -3 -30 -30z"/>
<path d="M2787 1913 c-4 -3 -7 -17 -7 -30 0 -19 5 -23 30 -23 27 0 30 3 30 30
0 25 -4 30 -23 30 -13 0 -27 -3 -30 -7z"/>
<path d="M2190 1530 c0 -27 3 -30 30 -30 27 0 30 3 30 30 0 27 -3 30 -30 30
-27 0 -30 -3 -30 -30z"/>
<path d="M1710 2840 c0 -27 3 -30 30 -30 27 0 30 3 30 30 0 27 -3 30 -30 30
-27 0 -30 -3 -30 -30z"/>
<path d="M2902 2843 c2 -22 9 -29 31 -31 24 -3 27 0 27 27 0 28 -3 31 -31 31
-27 0 -30 -3 -27 -27z"/>
<path d="M2900 1650 c0 -27 3 -30 30 -30 27 0 30 3 30 30 0 27 -3 30 -30 30
-27 0 -30 -3 -30 -30z"/>
<path d="M2668 3855 c-6 -30 -2 -35 29 -35 19 0 23 5 23 30 0 25 -4 30 -24 30
-17 0 -25 -7 -28 -25z"/>
<path d="M3200 3730 c0 -27 3 -30 30 -30 27 0 30 3 30 30 0 27 -3 30 -30 30
-27 0 -30 -3 -30 -30z"/>
<path d="M700 3490 c0 -27 3 -30 30 -30 27 0 30 3 30 30 0 27 -3 30 -30 30
-27 0 -30 -3 -30 -30z"/>
<path d="M820 3490 l0 -30 60 0 60 0 0 30 0 30 -60 0 -60 0 0 -30z"/>
<path d="M3560 3490 c0 -27 3 -30 30 -30 27 0 30 3 30 30 0 27 -3 30 -30 30
-27 0 -30 -3 -30 -30z"/>
<path d="M3260 3431 c0 -26 3 -29 30 -27 27 2 30 -1 30 -26 0 -24 4 -28 30
-28 30 0 30 1 30 55 l0 55 -60 0 c-60 0 -60 0 -60 -29z"/>
<path d="M947 3344 c-4 -4 -7 -18 -7 -31 0 -19 5 -23 31 -23 27 0 30 3 27 28
-3 26 -34 43 -51 26z"/>
<path d="M880 3200 c0 -27 3 -30 30 -30 27 0 30 3 30 30 0 27 -3 30 -30 30
-27 0 -30 -3 -30 -30z"/>
<path d="M1000 3201 c0 -25 4 -30 28 -33 21 -2 28 -9 30 -30 3 -24 8 -28 33
-28 26 0 29 3 29 30 0 27 3 30 31 30 27 0 30 3 27 28 -3 27 -3 27 -90 30 l-88
3 0 -30z"/>
<path d="M3740 3020 c0 -27 3 -30 30 -30 27 0 30 3 30 30 0 27 -3 30 -30 30
-27 0 -30 -3 -30 -30z"/>
<path d="M3620 2960 c0 -27 3 -30 30 -30 27 0 30 3 30 30 0 27 -3 30 -30 30
-27 0 -30 -3 -30 -30z"/>
<path d="M940 2900 c0 -27 -3 -30 -30 -30 -27 0 -30 -3 -30 -30 0 -27 -3 -30
-30 -30 -27 0 -30 -3 -30 -30 0 -27 3 -30 30 -30 27 0 30 3 30 30 0 27 3 30
30 30 27 0 30 3 30 30 l0 30 60 0 60 0 0 30 0 30 -60 0 -60 0 0 -30z"/>
<path d="M1292 2843 c2 -22 9 -29 31 -31 24 -3 27 0 27 27 0 28 -3 31 -31 31
-27 0 -30 -3 -27 -27z"/>
<path d="M3740 2780 c0 -27 3 -30 30 -30 27 0 30 3 30 30 0 27 -3 30 -30 30
-27 0 -30 -3 -30 -30z"/>
<path d="M520 2600 c0 -27 3 -30 30 -30 27 0 30 3 30 30 0 27 -3 30 -30 30
-27 0 -30 -3 -30 -30z"/>
<path d="M340 2420 c0 -27 -3 -30 -30 -30 -27 0 -30 -3 -30 -30 l0 -30 90 0
90 0 0 30 c0 27 -3 30 -30 30 -27 0 -30 3 -30 30 0 27 -3 30 -30 30 -27 0 -30
-3 -30 -30z"/>
<path d="M1000 2419 c0 -27 3 -30 28 -27 21 2 28 9 30 31 3 24 0 27 -27 27
-28 0 -31 -3 -31 -31z"/>
<path d="M3500 2300 c0 -27 3 -30 30 -30 27 0 30 3 30 30 0 27 -3 30 -30 30
-27 0 -30 -3 -30 -30z"/>
<path d="M280 2240 c0 -27 3 -30 30 -30 27 0 30 3 30 30 0 27 -3 30 -30 30
-27 0 -30 -3 -30 -30z"/>
<path d="M460 2210 l0 -60 30 0 c27 0 30 -3 30 -30 0 -27 -3 -30 -30 -30 -26
0 -30 -4 -30 -28 0 -24 4 -28 30 -30 27 -2 30 1 30 27 0 25 4 30 28 33 21 2
28 9 30 31 3 24 0 27 -27 27 -28 0 -31 3 -31 30 0 27 3 30 30 30 27 0 30 3 30
30 l0 30 -60 0 -60 0 0 -60z"/>
<path d="M760 2119 c0 -29 2 -31 30 -27 l30 5 0 -59 c0 -58 0 -58 -30 -58 -27
0 -30 -3 -30 -30 0 -27 3 -30 30 -30 27 0 30 3 30 30 0 27 3 30 30 30 30 0 30
0 30 58 0 56 -1 58 -27 57 -23 0 -29 5 -31 28 -3 23 -8 27 -33 27 -26 0 -29
-3 -29 -31z"/>
<path d="M1412 2063 c2 -22 8 -28 28 -28 20 0 26 6 28 28 3 24 0 27 -28 27
-28 0 -31 -3 -28 -27z"/>
<path d="M3746 2032 c-3 -3 -6 -16 -6 -29 0 -19 5 -23 30 -23 25 0 30 4 30 25
0 14 -3 25 -7 26 -5 0 -16 2 -25 4 -9 2 -19 0 -22 -3z"/>
<path d="M1120 2004 c0 -22 4 -25 28 -22 19 2 28 9 30 26 3 19 -1 22 -27 22
-27 0 -31 -4 -31 -26z"/>
<path d="M3620 2005 c0 -21 -5 -25 -30 -25 l-30 0 0 -60 0 -60 -30 0 c-27 0
-30 -3 -30 -30 l0 -30 60 0 60 0 0 90 0 90 30 0 c25 0 30 4 30 25 0 21 -5 25
-30 25 -25 0 -30 -4 -30 -25z"/>
<path d="M1060 1951 c0 -28 3 -31 31 -31 27 0 30 3 27 28 -2 21 -9 28 -30 30
-25 3 -28 0 -28 -27z"/>
<path d="M760 1800 l0 -60 30 0 c27 0 30 -3 30 -30 l0 -30 60 0 60 0 0 -30 c0
-27 3 -30 30 -30 27 0 30 -3 30 -31 0 -27 3 -30 28 -27 21 2 28 9 30 30 3 21
9 27 30 30 26 3 27 6 27 58 0 53 -1 55 -27 58 -23 3 -28 8 -28 32 0 24 5 29
28 32 21 2 28 9 30 31 l3 27 -90 0 -91 0 0 -30 c0 -27 -3 -30 -30 -30 -27 0
-30 3 -30 30 l0 30 -60 0 -60 0 0 -60z"/>
<path d="M1477 1793 c-4 -3 -7 -30 -7 -60 0 -52 0 -53 30 -53 l30 0 0 60 c0
56 -1 60 -23 60 -13 0 -27 -3 -30 -7z"/>
<path d="M3740 1530 c0 -27 -3 -30 -30 -30 -27 0 -30 -3 -30 -30 0 -27 3 -30
30 -30 27 0 30 -3 30 -30 0 -27 -3 -30 -30 -30 -27 0 -30 -3 -30 -30 l0 -30
90 0 90 0 0 -30 c0 -27 -3 -30 -30 -30 l-30 0 0 -60 0 -60 -30 0 c-27 0 -30
-3 -30 -30 l0 -30 60 0 60 0 0 90 0 90 30 0 c27 0 30 3 30 30 0 27 3 30 30 30
27 0 30 3 30 29 0 25 4 30 28 33 21 2 28 9 30 31 3 24 0 27 -27 27 -28 0 -31
-3 -31 -30 0 -27 -3 -30 -30 -30 -27 0 -30 -3 -30 -30 0 -27 -3 -30 -30 -30
-27 0 -30 3 -30 30 0 27 -3 30 -30 30 -27 0 -30 3 -30 30 0 27 3 30 30 30 l30
0 0 60 0 60 -60 0 -60 0 0 -30z m60 -60 c0 -27 -3 -30 -30 -30 -27 0 -30 3
-30 30 0 27 3 30 30 30 27 0 30 -3 30 -30z"/>
<path d="M1060 1469 c0 -27 3 -30 28 -27 21 2 28 9 30 31 3 24 0 27 -27 27
-28 0 -31 -3 -31 -31z"/>
<path d="M1710 1410 c0 -27 3 -30 30 -30 27 0 30 3 30 30 0 27 -3 30 -30 30
-27 0 -30 -3 -30 -30z"/>
<path d="M700 1200 l0 -60 -30 0 c-27 0 -30 -3 -30 -30 0 -27 3 -30 30 -30 27
0 30 -3 30 -30 0 -27 3 -30 30 -30 27 0 30 3 30 30 0 27 -3 30 -30 30 -27 0
-30 3 -30 30 0 27 3 30 30 30 l30 0 0 60 0 60 -30 0 -30 0 0 -60z"/>
<path d="M1180 1230 c0 -27 3 -30 31 -30 23 0 30 -4 28 -17 -3 -35 1 -43 25
-43 19 0 25 -6 28 -27 3 -27 6 -28 61 -31 l57 -3 0 31 0 30 -60 0 -60 0 0 30
c0 25 -4 30 -25 30 -25 0 -29 8 -26 43 2 13 -5 17 -28 17 -28 0 -31 -3 -31
-30z"/>
<path d="M1292 1233 c2 -22 9 -29 31 -31 24 -3 27 0 27 27 0 28 -3 31 -31 31
-27 0 -30 -3 -27 -27z"/>
<path d="M1120 1079 c0 -60 0 -60 28 -57 26 3 27 6 30 61 l3 57 -31 0 -30 0 0
-61z"/>
<path d="M1120 930 l0 -30 -90 0 -90 0 0 -30 c0 -27 3 -30 30 -30 l30 0 0 -61
c0 -60 0 -60 28 -57 21 2 28 9 30 30 3 21 9 27 30 30 25 3 27 6 30 61 l3 57
53 0 c40 0 55 4 60 16 15 38 8 44 -54 44 l-60 0 0 -30z"/>
<path d="M3920 839 c0 -60 0 -60 28 -57 26 3 27 6 30 61 l3 57 -31 0 -30 0 0
-61z"/>
<path d="M520 810 c0 -27 3 -30 30 -30 27 0 30 3 30 30 0 27 -3 30 -30 30 -27
0 -30 -3 -30 -30z"/>
<path d="M2070 810 c0 -27 3 -30 30 -30 27 0 30 3 30 30 0 27 -3 30 -30 30
-27 0 -30 -3 -30 -30z"/>
<path d="M3080 750 l0 -30 -60 0 -60 0 0 -30 0 -30 90 0 90 0 0 60 0 60 -30 0
c-27 0 -30 -3 -30 -30z"/>
<path d="M3440 690 c0 -27 3 -30 30 -30 27 0 30 3 30 30 0 27 -3 30 -30 30
-27 0 -30 -3 -30 -30z"/>
<path d="M1000 605 c0 -54 0 -55 30 -55 27 0 30 -3 30 -31 0 -27 3 -30 28 -27
21 2 27 8 27 28 0 20 -6 26 -27 28 -27 3 -28 6 -28 58 0 53 0 54 -30 54 -30 0
-30 -1 -30 -55z"/>
<path d="M1120 637 c0 -28 38 -45 52 -24 14 22 3 42 -25 45 -23 3 -27 0 -27
-21z"/>
<path d="M3200 520 c0 -27 3 -30 30 -30 27 0 30 3 30 30 0 27 -3 30 -30 30
-27 0 -30 -3 -30 -30z"/>
<path d="M1120 399 c0 -27 3 -30 28 -27 21 2 28 9 30 31 3 24 0 27 -27 27 -28
0 -31 -3 -31 -31z"/>
<path d="M1297 303 c-4 -3 -7 -17 -7 -30 0 -19 5 -23 30 -23 27 0 30 3 30 30
0 25 -4 30 -23 30 -13 0 -27 -3 -30 -7z"/>
<path d="M3740 4000 l0 -60 30 0 30 0 0 60 0 60 -30 0 -30 0 0 -60z"/>
<path d="M3620 3910 c0 -27 3 -30 30 -30 l30 0 0 -60 0 -60 30 0 30 0 0 60 0
60 -30 0 c-27 0 -30 3 -30 30 0 27 -3 30 -30 30 -27 0 -30 -3 -30 -30z"/>
<path d="M1410 3970 c0 -27 3 -30 30 -30 27 0 30 3 30 30 0 27 -3 30 -30 30
-27 0 -30 -3 -30 -30z"/>
<path d="M1470 3820 l0 -60 30 0 c27 0 30 3 30 30 0 27 3 30 30 30 27 0 30 3
30 30 l0 30 -60 0 -60 0 0 -60z"/>
<path d="M1710 4030 c0 -27 3 -30 30 -30 27 0 30 3 30 30 0 27 -3 30 -30 30
-27 0 -30 -3 -30 -30z"/>
<path d="M2900 4030 c0 -27 3 -30 30 -30 27 0 30 3 30 30 0 27 -3 30 -30 30
-27 0 -30 -3 -30 -30z"/>
<path d="M1410 3436 c0 -14 7 -25 18 -28 28 -8 42 2 42 28 0 20 -5 24 -30 24
-25 0 -30 -4 -30 -24z"/>
<path d="M520 2840 c0 -27 3 -30 30 -30 27 0 30 3 30 30 0 27 -3 30 -30 30
-27 0 -30 -3 -30 -30z"/>
<path d="M4100 2839 c0 -27 3 -30 26 -27 21 2 28 9 30 31 2 24 -1 27 -27 27
-26 0 -29 -3 -29 -31z"/>
<path d="M4330 2660 c0 -27 3 -30 30 -30 27 0 30 3 30 30 0 27 -3 30 -30 30
-27 0 -30 -3 -30 -30z"/>
<path d="M520 1650 c0 -27 3 -30 30 -30 27 0 30 3 30 30 0 27 -3 30 -30 30
-27 0 -30 -3 -30 -30z"/>
<path d="M1710 1650 c0 -27 3 -30 30 -30 27 0 30 3 30 30 0 27 -3 30 -30 30
-27 0 -30 -3 -30 -30z"/>
<path d="M4100 1650 c0 -25 4 -30 24 -30 17 0 25 7 28 25 6 30 2 35 -29 35
-19 0 -23 -5 -23 -30z"/>
<path d="M1710 460 c0 -27 3 -30 30 -30 27 0 30 3 30 30 0 27 -3 30 -30 30
-27 0 -30 -3 -30 -30z"/>
<path d="M2900 460 c0 -27 3 -30 30 -30 27 0 30 3 30 30 0 27 -3 30 -30 30
-27 0 -30 -3 -30 -30z"/>
<path d="M4100 460 c0 -25 4 -30 25 -30 21 0 25 5 25 30 0 25 -4 30 -25 30
-21 0 -25 -5 -25 -30z"/>
<path d="M3920 280 c0 -27 3 -30 30 -30 27 0 30 3 30 30 0 27 -3 30 -30 30
-27 0 -30 -3 -30 -30z"/>
<path d="M3260 4360 l0 -60 30 0 30 0 0 60 0 60 -30 0 -30 0 0 -60z"/>
<path d="M3620 4390 c0 -27 3 -30 30 -30 27 0 30 3 30 30 0 27 -3 30 -30 30
-27 0 -30 -3 -30 -30z"/>
<path d="M3980 4390 c0 -27 3 -30 30 -30 27 0 30 3 30 30 0 27 -3 30 -30 30
-27 0 -30 -3 -30 -30z"/>
<path d="M4098 4410 c-1 -5 -2 -100 0 -210 l3 -200 204 0 205 0 0 210 0 210
-204 0 c-126 0 -206 -4 -208 -10z m352 -200 l0 -151 -147 3 -148 3 -3 133 c-2
73 -1 140 2 148 4 11 34 14 151 14 l145 0 0 -150z"/>
<path d="M4212 4213 l3 -88 88 -3 87 -3 0 91 0 90 -90 0 -91 0 3 -87z"/>
<path d="M640 4210 c0 -27 3 -30 30 -30 27 0 30 3 30 30 0 27 -3 30 -30 30
-27 0 -30 -3 -30 -30z"/>
<path d="M2670 4210 c0 -25 4 -30 25 -30 21 0 25 5 25 30 0 25 -4 30 -25 30
-21 0 -25 -5 -25 -30z"/>
<path d="M280 3880 l0 -60 -30 0 c-27 0 -30 -3 -30 -30 0 -27 -3 -30 -30 -30
-27 0 -30 -3 -30 -30 0 -27 3 -30 30 -30 l30 0 0 -60 0 -60 -30 0 c-27 0 -30
-3 -30 -30 0 -27 3 -30 30 -30 27 0 30 3 30 30 0 27 3 30 30 30 27 0 30 -3 30
-31 0 -27 3 -30 28 -27 21 2 28 9 30 31 3 24 0 27 -27 27 -28 0 -31 3 -31 30
0 27 3 30 30 30 27 0 30 3 30 30 l0 30 60 0 60 0 0 30 0 30 60 0 60 0 0 30 c0
27 -3 30 -30 30 -27 0 -30 3 -30 30 0 27 3 30 30 30 27 0 30 3 30 30 l0 30
-90 0 -90 0 0 -30 c0 -27 -3 -30 -30 -30 -27 0 -30 3 -30 30 0 27 -3 30 -30
30 l-30 0 0 -60z m180 -60 l0 -60 -60 0 -60 0 0 -30 c0 -27 -3 -30 -30 -30
l-30 0 0 60 0 60 60 0 60 0 0 30 c0 27 3 30 30 30 l30 0 0 -60z"/>
<path d="M220 3436 c0 -26 -20 -39 -45 -30 -11 5 -15 -1 -15 -25 l0 -31 60 0
60 0 0 55 c0 54 0 55 -30 55 -25 0 -30 -4 -30 -24z"/>
<path d="M4463 3403 c-8 -3 -13 -25 -13 -59 0 -53 0 -54 30 -54 30 0 30 0 30
58 0 59 -9 69 -47 55z"/>
<path d="M4390 2960 l0 -30 60 0 60 0 0 30 0 30 -60 0 -60 0 0 -30z"/>
<path d="M4450 2006 c0 -19 -6 -25 -27 -28 -22 -2 -29 -9 -31 -30 -3 -25 0
-28 27 -28 28 0 31 -3 31 -29 0 -25 -4 -30 -27 -33 -22 -2 -29 -9 -31 -30 -3
-25 0 -28 27 -28 28 0 31 3 31 30 0 27 3 30 30 30 l30 0 0 85 0 85 -30 0 c-25
0 -30 -4 -30 -24z"/>
<path d="M533 603 c-7 -3 -13 -16 -13 -29 0 -20 5 -24 30 -24 25 0 30 4 30 24
0 24 -22 37 -47 29z"/>
<path d="M160 575 c0 -21 5 -25 30 -25 25 0 30 4 30 25 0 21 -5 25 -30 25 -25
0 -30 -4 -30 -25z"/>
<path d="M160 280 l0 -210 210 0 210 0 0 210 0 210 -210 0 -210 0 0 -210z
m360 0 l0 -150 -150 0 -150 0 0 150 0 150 150 0 150 0 0 -150z"/>
<path d="M280 280 l0 -90 90 0 90 0 0 90 0 90 -90 0 -90 0 0 -90z"/>
<path d="M3320 160 c0 -27 3 -30 30 -30 26 0 30 -3 30 -29 0 -25 3 -29 30 -27
26 1 30 5 30 28 0 24 -4 28 -30 28 -27 0 -30 3 -30 30 0 27 -3 30 -30 30 -27
0 -30 -3 -30 -30z"/>
</g>
</svg>
